SplineFontDB: 3.0
FontName: Jannon3
FullName: Jannon3
FamilyName: Jannon3
Weight: Regular
Copyright: Created by trashman with FontForge 2.0 (http://fontforge.sf.net)
UComments: "small: cut 1000px high, no scaling.+AAoA-larger: cut 1200px high, scale by .95." 
Version: 001.000
ItalicAngle: 0
UnderlinePosition: -100
UnderlineWidth: 50
Ascent: 700
Descent: 300
LayerCount: 3
Layer: 0 0 "Back"  1
Layer: 1 0 "Fore"  0
Layer: 2 0 "backup"  0
NeedsXUIDChange: 1
XUID: [1021 658 797806517 9253483]
FSType: 0
OS2Version: 0
OS2_WeightWidthSlopeOnly: 0
OS2_UseTypoMetrics: 1
CreationTime: 1283672823
ModificationTime: 1284634589
OS2TypoAscent: 0
OS2TypoAOffset: 1
OS2TypoDescent: 0
OS2TypoDOffset: 1
OS2TypoLinegap: 90
OS2WinAscent: 0
OS2WinAOffset: 1
OS2WinDescent: 0
OS2WinDOffset: 1
HheadAscent: 0
HheadAOffset: 1
HheadDescent: 0
HheadDOffset: 1
MarkAttachClasses: 1
DEI: 91125
Encoding: UnicodeBmp
UnicodeInterp: none
NameList: Adobe Glyph List
DisplaySize: -48
AntiAlias: 1
FitToEm: 1
WinInfo: 96 16 4
BeginPrivate: 9
BlueValues 23 [-29 2 387 426 648 692]
OtherBlues 11 [-270 -247]
StdHW 4 [38]
StdVW 4 [92]
StemSnapH 19 [31 38 42 47 52 92]
StemSnapV 13 [68 73 83 92]
BlueFuzz 1 0
BlueScale 6 0.0225
BlueShift 2 14
EndPrivate
BeginChars: 65536 80

StartChar: a
Encoding: 97 97 0
Width: 426
VWidth: 0
Flags: W
HStem: -18 64<75.5 168.177 283 366.003> 369 40<160.903 277.5>
VStem: 28 86<20 111.41> 51 90<281.054 330.953> 249 69<82.2622 190.42> 258 76<222.562 362.547>
LayerCount: 3
Fore
SplineSet
212 369 m 0xe4
 180 369 151 350 141 328 c 0
 127 297 121 262 85 262 c 0
 67 262 51 271 51 286 c 0
 51 347 169 409 256 409 c 0
 299 409 334 390 334 328 c 0xd4
 334 275 318 115 318 98 c 0xc8
 318 60 326 46 345 46 c 0
 384 46 388 87 404 87 c 0
 408 87 419 83 419 75 c 0
 419 53 377 -12 313 -12 c 0
 253 -12 247 61 241 61 c 0
 234 61 177 -18 90 -18 c 0
 61 -18 28 -2 28 42 c 0
 28 148 159 199 239 220 c 0
 252 223 255 223 256 242 c 0
 257 260 258 279 258 298 c 0
 258 331 254 369 212 369 c 0xe4
249 174 m 2xe8
 249 184 248 192 240 192 c 0
 216 192 114 148 114 82 c 0
 114 60 127 46 149 46 c 0
 179 46 205 64 224 79 c 0
 245 95 249 134 249 166 c 2
 249 174 l 2xe8
EndSplineSet
Validated: 1
EndChar

StartChar: b
Encoding: 98 98 1
Width: 494
VWidth: 0
Flags: W
HStem: -12 32<188.321 314.928> 355 50<193.692 310.86> 652 20G<143 152.5>
VStem: 80 71<47.2126 347.2> 86 71<137.045 348.967 375.5 595.667> 390 70<114.914 271.333>
LayerCount: 3
Fore
SplineSet
158 385 m 0xec
 158 380 157 359 168 368 c 0
 184 381 230 405 287 405 c 0
 373 405 460 326 460 201 c 0
 460 87 353 -12 252 -12 c 0
 184 -12 157 10 128 10 c 0
 104 10 109 -46 92 -46 c 0
 82 -46 76 -38 76 -21 c 0
 76 -9 80 24 80 70 c 0xf4
 80 106 86 386 86 554 c 0
 86 575 85 589 78 596 c 0
 63 612 33 609 33 623 c 0
 33 634 43 639 56 642 c 0
 112 655 138 672 148 672 c 0
 157 672 162 664 162 651 c 0
 162 596 157 540 157 485 c 0
 157 452 158 418 158 385 c 0xec
247 20 m 0
 336 20 390 83 390 182 c 0
 390 277 328 355 231 355 c 2
 221 355 l 2
 204 355 154 350 153 328 c 0
 151 262 149 199 149 134 c 0
 149 116 149 101 151 88 c 0
 157 38 212 20 247 20 c 0
EndSplineSet
Validated: 1
EndChar

StartChar: c
Encoding: 99 99 2
Width: 411
VWidth: 0
Flags: W
HStem: -31 67<176.03 306.419> 380.08 40.9203<171.502 285.006>
VStem: 29 77<113.271 283.151>
LayerCount: 3
Fore
SplineSet
237.699364524 380.079671794 m 0
 140.724186292 380.079671794 106 291.592896002 106 205 c 0
 106 106 166 36 247 36 c 0
 293 36 323 53 340 69 c 0
 345.944303499 74.5480165987 356 94.9287111996 371.580163697 94.9287111996 c 0
 379.522769024 94.9287111996 385 90 385 78 c 0
 385 38.685546875 310 -31 222 -31 c 0
 124 -31 29 45 29 179 c 0
 29 309 117 421 257 421 c 0
 316 421 373 401 373 352 c 0
 373 335 356 323 340 323 c 0
 299.859711677 323 294.17351596 380.079671794 237.699364524 380.079671794 c 0
EndSplineSet
Validated: 524289
Layer: 2
SplineSet
238 380 m 0
 141 380 106 292 106 205 c 0
 106 106 166 36 247 36 c 0
 340 36 345 95 372 95 c 0
 380 95 385 90 385 78 c 0
 385 39 310 -31 222 -31 c 0
 124 -31 29 45 29 179 c 0
 29 309 119 421 257 421 c 0
 316 421 373 401 373 352 c 0
 373 335 356 323 340 323 c 0
 296 324 294 380 238 380 c 0
EndSplineSet
EndChar

StartChar: d
Encoding: 100 100 3
Width: 493
VWidth: 0
Flags: W
HStem: -11 49<175.228 296.495> 6 37<402.753 463.929> 368 29<167.982 278.926> 638 34<240.007 305.921> 662 20G<375.5 380.5>
VStem: 24 66<121.653 277.433> 312 73<387.057 637.281> 318 72<39.5754 337.922>
LayerCount: 3
Fore
SplineSet
228 397 m 0xa5
 251 397 302 387 308 387 c 0
 311 387 312 465 312 476 c 0
 312 527 311 556 309 603 c 0
 309 620 308 636 286 638 c 2
 259 641 l 2
 247 642 240 647 240 655 c 0
 240 666 250 672 262 672 c 0xb6
 297 673 374 682 377 682 c 0
 384 682 390 677 390 670 c 0x2d
 390 634 385 419 385 286 c 0x2e
 385 200 386 130 390 44 c 0
 391 33 393 32 402 32 c 0
 418 32 438 43 447 43 c 0
 455 43 464 37 464 27 c 0
 464 10 458 10 445 6 c 0x6d
 377 -12 334 -31 330 -31 c 0
 319 -31 318 -25 318 -13 c 2
 318 17 l 2
 318 21 312 18 305 15 c 0
 274 0 248 -11 216 -11 c 0
 89 -11 24 74 24 188 c 0
 24 287 105 397 228 397 c 0xa5
258 38 m 0
 318 38 315 40 318 84 c 0xa5
 320 114 321 149 321 183 c 0
 321 219 318 256 316 288 c 0
 312 344 268 368 227 368 c 0
 144 368 90 300 90 208 c 0
 90 100 172 38 258 38 c 0
EndSplineSet
Validated: 1
EndChar

StartChar: e
Encoding: 101 101 4
Width: 424
VWidth: 0
Flags: W
HStem: -21 68<164.76 295.159> 272 28<118.001 285.985> 380 31<171.424 279.042>
VStem: 29 63<125.661 270.237> 304 81<286 334.863>
LayerCount: 3
Fore
SplineSet
206 -21 m 0
 102 -21 29 62 29 176 c 0
 29 296 103 411 236 411 c 0
 314 411 385 319 385 293 c 0
 385 279 374 270 356 270 c 2
 110 272 l 2
 92 272 92 237 92 219 c 0
 92 124 147 47 243 47 c 0
 304 47 332 88 350 88 c 0
 356 88 363 83 363 77 c 0
 363 48 303 -21 206 -21 c 0
222 380 m 0
 174 380 118 335 118 308 c 0
 118 301 120 300 125 300 c 2
 132 300 l 2
 156 300 235 301 286 314 c 0
 303 318 304 325 304 334 c 0
 304 364 249 380 222 380 c 0
EndSplineSet
Validated: 1
EndChar

StartChar: f
Encoding: 102 102 5
Width: 326
VWidth: 0
Flags: HW
HStem: -2 36<36.092 117.844 203.189 282.99> 331 32<57.0026 113.468> 351 42<200.017 309.811> 640 45<235.926 344.433>
VStem: 122 75<37.124 339.839 393.002 528.412>
LayerCount: 3
Fore
SplineSet
317 685 m 0xd8
 343 685 374 676 374 654 c 0
 374 645 353 611 330 611 c 0
 306 611 292 640 272 640 c 0
 254 640 229 624 216 578 c 0
 206 541 200 486 200 406 c 0
 200 396 206 393 215 393 c 0
 224 393 278 397 297 398 c 0
 306 398 310 392 310 377 c 0
 310 363 307 355 297 354 c 0
 283 353 238 353 214 351 c 0xb8
 196 349 198 348 198 337 c 2
 197 99 l 2
 197 32 214 35 252 34 c 0
 269 34 283 32 283 16 c 0
 283 4 277 -2 266 -2 c 0
 209 -2 201 0 160 0 c 0
 122 0 76 -2 52 -2 c 0
 41 -2 36 5 36 13 c 0
 36 27 40 34 56 34 c 2
 71 34 l 2
 118 34 122 37 122 104 c 0
 122 135 120 181 120 217 c 0
 120 253 121 289 121 326 c 0
 121 334 120 340 114 340 c 0
 103 340 70 331 67 331 c 0
 56 331 57 342 57 348 c 0
 57 354 60 361 66 363 c 0
 79 367 91 371 108 375 c 0
 124 379 126 383 126 391 c 0
 129 490 142 552 182 612 c 0
 210 655 243 685 317 685 c 0xd8
EndSplineSet
Validated: 1
EndChar

StartChar: g
Encoding: 103 103 6
Width: 459
VWidth: 0
Flags: HW
HStem: -263 28<109.396 246.81> -33 64<107.556 331.849> 116 26<168.018 247.559> 330 60<353.696 432.577> 383 28<160.239 248.386>
VStem: -6 56<-197.751 -99.5745> 35 62<40.6749 96.3716> 55 72<178.327 341.4> 289 68<190.108 329.708> 361 51<-153.99 -59.0813>
LayerCount: 3
Fore
SplineSet
204 154 m 0xe9c0
 259 154 284 217 284 281 c 0
 284 367 240 397 204 397 c 0
 149 397 120 361 120 296 c 0
 120 206 157 154 204 154 c 0xe9c0
345 -79 m 0
 345 -59 322 -13 231 -13 c 2
 195 -13 l 2
 179 -13 164 -13 144 -15 c 0
 96 -19 37 -67 37 -126 c 0xe4c0
 37 -200 124 -214 167 -214 c 0
 250 -214 345 -161 345 -79 c 0
157 -247 m 0
 55 -247 -21 -215 -21 -141 c 0
 -21 -42 98 -12 98 -6 c 0
 98 0 25 47 25 102 c 0xf2c0
 25 114 37 120 59 127 c 0
 80 134 120 144 120 147 c 0
 120 150 106 161 102 165 c 0
 71 195 53 216 53 281 c 0
 53 356 108 425 208 425 c 0xe9c0
 252 425 299 400 311 400 c 2
 397 400 l 2
 419 400 428 386 428 375 c 0
 428 357 428 342 414 342 c 0
 413 342 412 342 411 342 c 2
 355 348 l 2
 346 348 342 340 344 331 c 0
 347 320 349 304 349 289 c 0
 349 197 296 131 189 131 c 0
 174 131 156 136 148 136 c 0
 144 136 89 109 89 93 c 0xf2c0
 89 68 137 43 160 43 c 0
 199 43 210 49 267 49 c 0
 338 49 400 15 400 -68 c 0
 400 -126 356 -176 303 -203 c 0
 251 -230 193 -247 157 -247 c 0
EndSplineSet
EndChar

StartChar: h
Encoding: 104 104 7
Width: 519
VWidth: 0
Flags: HW
HStem: -3 31<13.2131 79.8774 155.092 225.965 282.14 345.719 423.267 502.935> 370 49<219.057 330.333> 602 32<27.1152 84.23> 648 20G<145 154.5>
VStem: 82 73<31 338.082> 87 72<357.004 601.712> 349 73<30.0112 275.561> 357 72<56.3592 342.933>
LayerCount: 3
Fore
SplineSet
301 418 m 0
 412 418 426 348 426 259 c 0
 426 195 420 124 420 60 c 0
 420 29 430 33 479 32 c 0
 494 32 502 28 502 15 c 0
 502 2 489 -2 481 -2 c 0
 470 -2 393 0 385 0 c 0
 360 0 321 -3 301 -3 c 0
 283 -3 276 2 276 12 c 0
 276 22 277 32 296 32 c 0
 300 32 304 32 308 32 c 0
 337 32 345 37 346 70 c 0xf2
 348 128 353 186 353 247 c 0
 353 265 353 283 352 300 c 0
 350 337 324 371 265 371 c 0
 220 371 188 352 170 336 c 0
 158 325 152 319 152 304 c 0
 152 208 153 186 153 58 c 0
 153 34 161 33 190 32 c 0
 220 31 234 27 234 16 c 0
 234 1 224 -3 208 -3 c 0
 198 -3 148 0 120 0 c 0
 83 0 25 -2 21 -2 c 0
 11 -2 6 1 6 12 c 0
 6 30 26 31 42 32 c 0
 56 33 78 31 78 56 c 0xf9
 80 204 87 442 87 575 c 0
 87 599 72 599 59 599 c 2
 49 599 l 2
 37 599 27 601 27 613 c 0
 27 622 33 627 44 630 c 0
 90 643 146 666 154 666 c 0
 163 666 164 657 164 651 c 0
 164 642 158 598 158 425 c 0
 158 404 158 386 159 371 c 0
 160 362 159 355 160 355 c 0
 163 355 183 373 205 388 c 0xf4
 233 408 260 418 301 418 c 0
EndSplineSet
Validated: 1
EndChar

StartChar: i
Encoding: 105 105 8
Width: 287
VWidth: 0
Flags: HW
HStem: -2 31<35.5078 105.602 189.59 260.928> 340 33<59.008 108.377> 578 86<123.642 198.358>
VStem: 112 72<32.5479 324.256> 116 78<173.429 335.172> 118 86<583.642 658.358>
LayerCount: 3
Fore
SplineSet
115 620 m 0xe4
 115 644 137 662 161 662 c 0
 185 662 208 645 208 621 c 0
 208 591 185 577 161 577 c 0
 137 577 115 596 115 620 c 0xe4
177 440 m 0
 185 440 196 438 196 419 c 0xe8
 196 415 193 377 190 322 c 0
 187 256 184 167 184 87 c 0
 184 35 190 33 233 33 c 2
 243 33 l 2
 256 33 260 25 260 20 c 0
 260 10 250 -1 232 -1 c 0
 219 -1 177 0 152 0 c 2
 60 0 l 2
 47 0 31 2 31 17 c 0
 31 31 43 31 61 31 c 2
 81 31 l 2
 101 31 109 35 110 73 c 0xf0
 111 135 114 217 114 283 c 0
 114 293 114 297 113 308 c 0xe8
 112 329 100 336 77 340 c 0
 68 342 54 344 54 355 c 0
 54 363 58 368 75 371 c 0
 119 379 136 398 152 417 c 0
 161 428 167 440 177 440 c 0
EndSplineSet
Validated: 1
EndChar

StartChar: j
Encoding: 106 106 9
Width: 284
VWidth: 0
Flags: HW
HStem: 564 86<79.6424 154.358>
VStem: 74 86<569.642 644.358> 122 75<-97.5249 420>
LayerCount: 3
Fore
SplineSet
124 647 m 0
 148 647 163 631 163 613 c 0
 163 590 148 565 115 565 c 0
 93 565 81 583 81 602 c 0
 81 624 94 647 124 647 c 0
181 441 m 0
 193 441 195 429 195 421 c 0
 195 297 192 60 190 0 c 0
 186 -143 102 -219 70 -219 c 0
 64 -219 57 -209 57 -204 c 0
 57 -171 106 -199 112 -22 c 0
 115 55 122 213 122 290 c 0xa0
 122 329 113 347 93 352 c 0
 80 355 64 357 64 370 c 0
 64 376 70 383 79 386 c 0
 105 396 134 408 150 422 c 0
 160 430 172 441 181 441 c 0
EndSplineSet
Validated: 1
EndChar

StartChar: k
Encoding: 107 107 10
Width: 530
VWidth: 0
Flags: W
HStem: -1 31<27.0177 94.2179 168.723 221.991 418.239 501.989> 362 25<298.026 341.612> 367 32<410.674 489.295> 649 20G<162 171.5>
VStem: 97 70<30.5649 183.856 205.005 319.192> 105 82<540.615 607.721>
DStem2: 256 212 184 182 0.683941 -0.729537<-17.1394 165.085>
LayerCount: 3
Fore
SplineSet
260 13 m 0xb8
 260 40 313 18 313 39 c 0
 313 42 306 51 303 54 c 0
 263 106 206 162 184 182 c 0
 176 190 177 188 170 184 c 0
 165 181 165 174 165 163 c 2
 167 56 l 2
 167 34 182 32 196 29 c 0
 210 26 222 27 222 15 c 0
 222 3 213 -3 202 -3 c 0
 179 -3 185 0 127 0 c 0
 89 0 74 -1 50 -1 c 0
 33 -1 27 7 27 15 c 0
 27 29 40 30 54 30 c 2
 63 30 l 2
 80 30 94 31 96 54 c 0
 97 62 97 81 97 90 c 0xb8
 97 200 105 535 105 565 c 0xb4
 105 605 90 606 82 608 c 0
 60 614 51 614 51 625 c 0
 51 637 65 639 76 641 c 0
 118 650 157 669 167 669 c 0xb8
 176 669 188 667 187 651 c 2xb4
 174 446 l 2
 170 378 167 303 167 230 c 0
 167 212 167 205 171 205 c 0
 173 205 177 208 184 213 c 0
 231 245 281 285 331 329 c 0
 339 336 342 339 342 346 c 0
 342 358 331 359 314 362 c 0
 305 364 298 365 298 374 c 0
 298 381 307 387 313 387 c 0xd8
 393 389 461 399 474 399 c 0
 483 399 490 396 490 389 c 0
 490 376 482 369 470 367 c 0
 416 360 406 349 384 333 c 2
 261 240 l 2
 258 238 242 227 256 212 c 2
 361 100 l 2
 393 65 425 28 466 27 c 0
 487 26 502 28 502 15 c 0
 502 2 498 -4 480 -4 c 0
 445 -4 427 0 388 0 c 0
 345 0 317 -2 276 -2 c 0
 266 -2 260 4 260 13 c 0xb8
EndSplineSet
Validated: 1
EndChar

StartChar: l
Encoding: 108 108 11
Width: 326
VWidth: 0
Flags: HW
HStem: -7 36<42.0656 124.832 210.967 278.707> 652 20G<196 205.5>
VStem: 130 77<34.8463 568.906> 133 81<82.6022 656.898>
LayerCount: 3
Fore
SplineSet
133 576 m 0xd0
 133 603 112 609 95 612 c 0
 86 614 80 618 80 626 c 0
 80 637 87 640 95 642 c 0
 132 652 191 672 201 672 c 0
 210 672 214 664 214 654 c 0xd0
 212 458 207 263 207 67 c 0
 207 35 224 33 255 33 c 0
 273 33 279 28 279 15 c 0
 279 3 273 -3 260 -3 c 0
 237 -3 232 0 174 0 c 0
 149 0 79 -7 69 -7 c 0
 52 -7 42 -1 42 10 c 0
 42 26 64 28 76 29 c 0
 128 32 130 45 130 84 c 0xe0
 130 189 133 426 133 576 c 0xd0
EndSplineSet
Validated: 1
EndChar

StartChar: m
Encoding: 109 109 12
Width: 776
VWidth: 0
Flags: HW
HStem: -1 30<37.0124 112.396 189.825 259.953 296.053 357.871 437.562 503.942 531.145 601.18 682.829 746.982> 376 49<248.548 348.402 482.317 588.171>
VStem: 117 70<29.9718 341.225> 364 71<31.8044 353.237> 611 72<32.6573 350.971>
LayerCount: 3
Fore
SplineSet
336 425 m 0
 381 425 411 407 424 374 c 0
 426 369 427 366 429 366 c 0
 430 366 432 368 435 371 c 0
 461 392 500 422 558 422 c 0
 656 422 683 372 683 281 c 0
 683 206 677 140 677 63 c 0
 677 36 698 33 713 31 c 0
 732 29 747 28 747 14 c 0
 747 1 722 -2 716 -2 c 0
 713 -2 679 0 646 0 c 0
 613 0 585 -1 552 -1 c 0
 539 -1 531 6 531 16 c 0
 531 27 542 29 555 29 c 0
 594 29 606 31 608 81 c 0
 610 127 611 174 611 220 c 0
 611 243 611 270 610 293 c 0
 609 335 587 378 531 378 c 0
 510 378 490 372 473 363 c 0
 450 351 434 340 434 308 c 0
 434 221 435 144 435 59 c 0
 435 33 450 29 464 29 c 0
 484 29 504 29 504 15 c 0
 504 -1 486 -2 480 -2 c 0
 469 -2 424 0 393 0 c 0
 361 0 351 -1 319 -1 c 0
 304 -1 296 3 296 13 c 0
 296 25 309 28 322 29 c 0
 360 31 360 40 362 75 c 0
 363 95 364 119 364 139 c 2
 364 173 l 2
 364 213 364 253 361 291 c 0
 358 337 359 376 296 376 c 0
 243 376 191 349 189 291 c 0
 188 253 187 217 187 180 c 2
 187 69 l 2
 187 28 199 30 222 28 c 0
 244 26 260 29 260 13 c 0
 260 1 248 -1 225 -1 c 2
 204 -1 l 2
 162 -1 97 -3 75 -3 c 0
 40 -3 38 3 38 14 c 0
 38 29 54 26 70 27 c 0
 84 28 113 27 114 52 c 0
 117 112 117 195 117 264 c 0
 117 289 117 308 116 330 c 0
 114 377 51 344 51 371 c 0
 51 383 60 386 86 389 c 0
 126 393 144 415 166 443 c 0
 172 451 179 455 184 455 c 0
 190 455 198 450 198 439 c 0
 198 431 190 390 190 383 c 0
 190 371 192 367 196 367 c 0
 200 367 203 370 208 375 c 0
 229 393 269 425 336 425 c 0
EndSplineSet
EndChar

StartChar: n
Encoding: 110 110 13
Width: 506
VWidth: 0
Flags: HW
HStem: -3 36<21.0102 80.8385 156.765 235.902 274.059 345.219 416.745 478.609> 366 52<211.233 335.338>
VStem: 86 72<34.4092 322.776> 348 68<37.2188 291.713> 351 74<79.4075 347.754>
LayerCount: 3
Fore
SplineSet
350 301 m 0xe8
 350 347 319 366 267 366 c 0
 252 366 231 363 211 356 c 0
 184 346 158 334 158 311 c 0
 158 223 156 147 155 62 c 0
 155 36 176 34 199 32 c 0
 221 30 236 29 236 18 c 0
 236 9 234 -2 214 -2 c 0
 184 -2 193 -1 117 -1 c 0
 80 -1 35 2 31 2 c 0
 21 2 21 6 21 17 c 0
 21 28 35 33 53 33 c 2
 61 33 l 2
 72 33 81 35 81 55 c 0
 82 138 86 240 86 296 c 0
 86 338 31 314 31 342 c 0
 31 357 44 358 63 361 c 0
 96 366 106 389 121 413 c 0
 126 421 133 434 147 434 c 0
 153 434 161 429 161 420 c 0
 161 412 158 393 158 376 c 0
 158 366 160 363 163 363 c 0
 167 363 173 368 180 374 c 0
 210 400 244 418 300 418 c 0
 350 418 425 402 425 320 c 0xe8
 425 234 416 146 416 59 c 0
 416 42 423 39 438 37 c 0
 457 34 479 38 479 20 c 0
 479 2 469 -2 462 -2 c 0
 418 -2 395 0 380 0 c 0
 347 0 312 -3 292 -3 c 0
 279 -3 274 3 274 13 c 0
 274 28 281 32 296 33 c 0
 340 36 346 29 348 76 c 0xf0
 350 136 351 167 351 202 c 0
 351 222 350 273 350 301 c 0xe8
EndSplineSet
Validated: 1
EndChar

StartChar: o
Encoding: 111 111 14
Width: 510
VWidth: 0
Flags: HW
HStem: -25 33<194.669 311.856> 395 31<189.774 301.644>
VStem: 36 77<104.071 302.44> 389 85<100.984 304.857>
LayerCount: 3
Fore
SplineSet
245 -18 m 0
 134 -18 38 44 38 206 c 0
 38 335 139 426 256 426 c 0
 371 426 468 357 468 213 c 0
 468 59 361 -18 245 -18 c 0
113 228 m 0
 113 107 163 14 250 14 c 0
 362 14 389 124 389 194 c 0
 389 328 324 394 248 394 c 0
 154 394 113 302 113 228 c 0
EndSplineSet
EndChar

StartChar: p
Encoding: 112 112 15
Width: 526
VWidth: 0
Flags: HW
HStem: -270 32<20.034 91.4064 183.899 271.916> -4 32<213.771 359.216> 364 33<27.309 93.2745> 366 7<178 186>
VStem: 103 73<-229.312 14 56.8391 353.323> 146 38<424.299 473.378> 437 66<109.178 266.562>
LayerCount: 3
Fore
SplineSet
502 219 m 0
 502 99 424 -2 286 -2 c 0
 238 -2 207 11 192 18 c 0
 181 23 182 19 182 14 c 2
 180 -182 l 2
 180 -200 194 -208 242 -208 c 0
 260 -208 274 -216 274 -230 c 0
 274 -244 269 -245 248 -245 c 2
 144 -245 l 2
 120 -245 55 -243 46 -243 c 0
 30 -243 28 -235 28 -226 c 0
 28 -211 47 -213 60 -211 c 0
 90 -207 106 -211 106 -157 c 0xda
 106 -128 104 -30 104 66 c 2
 104 324 l 2
 104 354 90 359 73 359 c 0
 66 359 59 358 51 358 c 0
 40 358 30 366 30 376 c 0
 30 391 35 394 50 395 c 0
 62 396 74 398 84 399 c 0
 126 404 147 434 152 458 c 0
 154 469 162 478 173 478 c 0
 180 478 190 475 190 456 c 0xe6
 190 444 182 425 182 402 c 0
 182 383 185 378 189 378 c 0
 193 378 197 383 200 385 c 0
 236 413 274 423 313 423 c 0xda
 413 423 502 352 502 219 c 0
434 176 m 0
 434 281 364 362 265 362 c 0
 240 362 217 359 200 347 c 0
 181 334 180 313 180 286 c 2
 180 149 l 2
 180 107 187 88 199 70 c 0
 213 50 261 36 296 36 c 0
 399 36 434 116 434 176 c 0
EndSplineSet
EndChar

StartChar: q
Encoding: 113 113 16
Width: 475
VWidth: 0
Flags: HW
HStem: -251 35<400.74 485.941> -242 26<252.004 321.24> 22 21<276.545 323.168> 366 33<168.062 286.891> 396 20G<390.5 406>
VStem: 22 70<121.223 282.329> 324 74<-214.335 22.093> 333 72<46.3037 328.029>
LayerCount: 3
Fore
SplineSet
399 -151 m 2x35
 399 -161 398 -172 398 -181 c 0
 398 -203 406 -216 435 -216 c 2
 458 -216 l 2
 473 -216 486 -218 486 -232 c 0
 486 -246 477 -251 465 -251 c 0xb6
 444 -251 390 -245 360 -245 c 0
 336 -245 279 -242 270 -242 c 0
 250 -242 252 -233 252 -224 c 0
 252 -218 257 -217 270 -216 c 0
 308 -213 323 -223 324 -184 c 2
 327 16 l 2
 327 30 315 24 307 22 c 0
 278 13 242 -3 209 -3 c 0
 99 -3 22 86 22 191 c 0
 22 333 151 399 240 399 c 0x76
 315 399 348 364 366 364 c 0
 384 364 379 416 402 416 c 0x2e
 410 416 414 406 414 399 c 0
 412 352 407 297 405 178 c 2
 399 -151 l 2x35
271 43 m 0
 311 43 333 43 333 87 c 2
 333 270 l 2x35
 333 332 280 366 225 366 c 0
 159 366 92 303 92 202 c 0
 92 104 165 43 271 43 c 0
EndSplineSet
EndChar

StartChar: r
Encoding: 114 114 17
Width: 371
VWidth: 0
Flags: HW
HStem: -6 35<32.2872 97.8545 176.625 266.928> 319 100<261.446 352.159>
VStem: 100 73<37.4844 327.092>
LayerCount: 3
Fore
SplineSet
104 303 m 2
 104 340 42 312 42 342 c 0
 42 352 46 358 60 360 c 0
 108 367 131 396 148 425 c 0
 152 432 155 437 164 437 c 0
 176 437 180 427 180 418 c 0
 180 414 171 374 171 368 c 0
 171 356 179 354 184 354 c 0
 196 354 240 408 307 408 c 0
 330 408 361 394 361 362 c 0
 361 320 331 312 308 312 c 0
 280 312 250 342 234 342 c 0
 214 342 205 332 192 321 c 0
 173 305 171 282 171 254 c 2
 171 171 l 2
 171 134 170 95 170 58 c 0
 170 36 196 36 239 32 c 0
 257 30 263 28 263 14 c 0
 263 4 257 -2 236 -2 c 0
 232 -2 177 0 148 0 c 0
 117 0 69 -2 49 -2 c 0
 35 -2 33 4 33 12 c 0
 33 30 54 27 74 28 c 0
 98 30 101 33 101 55 c 2
 104 303 l 2
EndSplineSet
EndChar

StartChar: s
Encoding: 115 115 18
Width: 351
VWidth: 0
Flags: HW
HStem: -26 36<119.748 224.89> 375 31<121.704 222.132>
VStem: 46 58<277.852 360.377> 48 27<69.3238 115.974> 253 66<36.5244 118.972>
LayerCount: 3
Fore
SplineSet
42 299 m 0xe8
 42 352 84 415 175 415 c 0
 205 415 244 406 269 396 c 0
 286 389 292 375 292 363 c 2
 292 322 l 2
 292 309 288 296 276 296 c 0
 260 296 257 310 253 321 c 0
 240 360 196 377 168 377 c 0
 133 377 107 362 107 326 c 0xe8
 107 236 315 237 315 112 c 0
 315 44 260 -16 160 -16 c 0
 118 -16 94 -10 74 -3 c 0
 52 5 45 12 45 24 c 0
 45 42 41 92 41 112 c 0
 41 131 47 133 60 133 c 0
 70 133 72 123 74 118 c 0xd8
 96 49 119 24 174 24 c 0
 219 24 244 56 244 90 c 0
 244 173 42 176 42 299 c 0xe8
EndSplineSet
EndChar

StartChar: t
Encoding: 116 116 19
Width: 352
VWidth: 0
Flags: W
HStem: -16 55<183.177 276.08> 336 37<44.0588 96.8134> 345 53<182.277 321.426>
VStem: 92 79<47.9073 322.672> 104 73<132.097 335.909> 151 39<421.386 474.919>
LayerCount: 3
Fore
SplineSet
196 -16 m 0xb0
 114 -16 92 32 92 99 c 0xb0
 92 173 104 265 104 316 c 0xa8
 104 335 95 336 80 336 c 2
 66 336 l 2
 53 336 44 343 44 353 c 0
 44 362 49 369 60 373 c 0
 104 388 141 420 151 458 c 0
 154 468 163 475 172 475 c 0
 182 475 190 468 190 459 c 0xc4
 190 447 182 418 182 413 c 0
 182 404 193 398 206 398 c 0
 208 398 299 404 303 404 c 0
 318 404 322 395 322 383 c 0
 322 356 320 345 297 345 c 2
 194 345 l 2
 181 345 177 345 177 335 c 0xa8
 176 266 171 195 171 129 c 0
 171 71 179 39 225 39 c 0
 268 39 295 75 306 75 c 0
 312 75 318 69 318 63 c 0
 318 31 269 -16 196 -16 c 0xb0
EndSplineSet
EndChar

StartChar: u
Encoding: 117 117 20
Width: 513
VWidth: 0
Flags: HW
HStem: -18 21G<352 360> -11 57<187.198 285.453> 363 38<24.029 87.4389 256.254 341.911>
VStem: 88 73<73.9586 365.781> 345 73<68.0911 359.459>
LayerCount: 3
Fore
SplineSet
416 194 m 0
 416 144 414 100 414 72 c 0
 414 54 427 48 440 48 c 0
 451 48 464 52 474 52 c 0
 485 52 493 48 493 32 c 0
 493 15 476 15 412 -2 c 0
 402 -5 365 -16 357 -16 c 0xb8
 349 -16 342 -9 342 -1 c 2
 344 36 l 2
 345 50 338 43 332 39 c 0
 282 8 256 -11 205 -11 c 0
 104 -11 88 69 88 147 c 0
 88 212 90 276 91 340 c 0
 91 358 68 362 45 364 c 0
 34 365 28 369 28 381 c 0
 28 390 34 396 48 396 c 0
 77 397 124 397 149 397 c 0
 171 397 172 395 172 383 c 0
 172 372 160 253 160 187 c 0
 160 121 169 46 241 46 c 0
 268 46 313 58 334 75 c 0
 344 83 346 96 346 112 c 0
 346 153 347 194 347 235 c 2
 346 338 l 2
 346 360 326 362 310 362 c 2
 300 362 l 2
 278 362 256 362 256 382 c 0
 256 393 265 401 275 401 c 0
 297 401 303 398 342 398 c 0
 381 398 397 401 409 401 c 0
 421 401 426 393 425 380 c 0
 422 334 416 248 416 194 c 0
EndSplineSet
EndChar

StartChar: v
Encoding: 118 118 21
Width: 511
VWidth: 0
Flags: HW
HStem: -17 21G<251.5 260> 364 34<175.067 239.993 417.684 485.697>
LayerCount: 3
Fore
SplineSet
358 341 m 0
 358 364 338 362 319 363 c 0
 303 364 289 364 289 376 c 0
 289 390 303 396 321 396 c 0
 344 396 371 395 394 395 c 0
 418 395 446 396 469 396 c 0
 479 396 481 386 481 377 c 0
 481 362 462 364 445 361 c 0
 415 356 407 355 388 302 c 0
 358 217 311 108 276 24 c 0
 265 -4 264 -16 251 -16 c 0
 237 -16 238 -3 230 15 c 2
 98 314 l 2
 83 349 76 355 60 357 c 0
 39 360 20 359 20 379 c 0
 20 392 25 396 34 396 c 2
 123 396 l 2
 147 396 198 398 222 398 c 0
 234 398 241 393 241 381 c 0
 241 367 230 362 211 362 c 2
 199 362 l 2
 185 362 173 361 173 347 c 0
 173 335 216 221 264 122 c 0
 268 114 271 109 275 109 c 0
 279 109 282 114 286 123 c 0
 314 196 358 330 358 341 c 0
EndSplineSet
EndChar

StartChar: w
Encoding: 119 119 22
Width: 787
VWidth: 0
Flags: HW
HStem: -14 21G<241.5 257 533 543> 364 34<177.63 246.494 304.628 363.191 584.619 643.917 704 771.488> 372 31<22.3567 79.8827>
VStem: 364 92<300.851 365.786> 644 128<330.5 389.5>
LayerCount: 3
Fore
SplineSet
521 382 m 0xd8
 521 367 506 365 489 365 c 0
 471 365 452 364 452 348 c 0
 452 337 516 180 548 120 c 0
 555 107 559 99 565 114 c 0
 592 182 640 309 640 338 c 0
 640 347 640 362 611 365 c 0
 596 367 575 366 575 382 c 0
 575 397 591 400 601 400 c 0
 627 400 662 396 689 396 c 0
 713 396 742 399 753 399 c 0
 762 399 762 389 762 380 c 0
 762 367 758 364 738 364 c 0xd8
 691 364 690 346 668 290 c 0
 630 193 600 114 562 29 c 0
 549 0 546 -12 535 -12 c 0
 525 -12 517 -4 505 25 c 0
 481 86 438 185 405 262 c 0
 397 281 395 290 391 290 c 0
 387 290 383 281 376 262 c 2
 287 35 l 2
 272 -2 268 -16 254 -16 c 0
 237 -16 233 -4 222 25 c 0
 216 40 200 73 195 86 c 2
 89 332 l 2
 76 362 67 364 56 364 c 2
 49 364 l 2
 25 364 24 370 24 384 c 0
 24 394 30 398 38 398 c 0xb8
 58 398 72 396 131 396 c 0
 198 396 214 398 232 398 c 0
 238 398 254 398 254 381 c 0
 254 362 235 363 218 361 c 0
 194 358 177 356 177 343 c 0
 177 323 222 212 268 112 c 0
 273 100 278 98 283 110 c 0
 310 172 361 318 361 341 c 0
 361 358 342 365 315 366 c 0
 302 366 302 373 302 384 c 0
 302 395 313 399 320 399 c 0
 356 399 372 398 407 398 c 2
 501 398 l 2
 515 398 521 390 521 382 c 0xd8
EndSplineSet
EndChar

StartChar: x
Encoding: 120 120 23
Width: 527
VWidth: 0
Flags: HW
HStem: 0 31<29.7546 112.361 421.325 478.958> 369 33<40.0262 109.751 415.363 487.155>
VStem: 228 72<182.188 224.656>
DStem2: 134 68 187 70 0.620177 0.784462<7.31079 137.203 235.188 245.319> 268 259 139 318 0.583075 -0.812418<-115.661 7.64295 79.2394 206.312>
LayerCount: 3
Fore
SplineSet
211 210 m 2
 140 312 l 2
 122 338 108 358 74 364 c 0
 44 369 39 368 39 384 c 0
 39 395 49 400 61 400 c 2
 142 400 l 2
 166 400 202 402 226 402 c 0
 242 402 248 391 248 385 c 0
 248 361 200 376 200 355 c 0
 200 347 229 308 264 260 c 0
 272 250 273 251 282 262 c 0
 336 329 349 348 349 358 c 0
 349 365 341 365 332 367 c 0
 319 370 304 371 304 385 c 0
 304 397 314 401 333 401 c 0
 344 401 371 400 394 400 c 0
 418 400 435 401 458 401 c 0
 468 401 478 397 478 386 c 0
 478 372 474 370 459 369 c 0
 424 367 428 366 406 348 c 0
 374 321 340 281 306 238 c 0
 297 227 295 224 295 218 c 0
 295 209 305 195 312 186 c 2
 408 54 l 2
 423 34 436 31 452 31 c 0
 466 31 468 22 468 12 c 0
 468 1 458 -4 449 -4 c 0
 427 -4 406 0 366 0 c 0
 357 0 321 -3 304 -3 c 0
 282 -3 272 6 272 17 c 0
 272 28 281 30 298 31 c 0
 309 32 320 35 320 46 c 0
 320 56 278 112 255 144 c 0
 247 156 247 155 237 144 c 0
 214 117 202 102 186 77 c 0
 176 62 176 58 176 48 c 0
 176 35 183 35 196 34 c 0
 212 33 226 33 226 13 c 0
 226 0 208 -2 190 -2 c 0
 167 -2 145 0 122 0 c 0
 98 0 71 -2 48 -2 c 0
 38 -2 35 3 35 9 c 0
 35 15 38 22 40 27 c 0
 44 34 51 34 62 34 c 0
 98 34 110 43 132 68 c 0
 175 116 181 128 214 166 c 0
 221 175 225 180 225 185 c 0
 225 191 219 198 211 210 c 2
EndSplineSet
EndChar

StartChar: y
Encoding: 121 121 24
Width: 534
VWidth: 0
Flags: HW
HStem: -247 83<53.6471 140.112> 370 33<31.3751 96.9824 429.978 504.787>
DStem2: 148 -151 198 -137 0.421509 0.906824<-23.2651 174.798 314.673 505.153>
LayerCount: 3
Fore
SplineSet
247 388 m 0
 245 351 190 385 190 352 c 0
 190 331 230 223 269 125 c 0
 273 114 277 114 283 126 c 0
 315 192 374 326 374 359 c 0
 374 368 362 368 345 368 c 2
 334 368 l 2
 319 368 309 374 309 388 c 0
 309 400 319 406 326 406 c 0
 340 406 396 400 412 400 c 2
 490 400 l 2
 501 400 504 390 504 384 c 0
 504 362 489 361 468 360 c 0
 441 359 426 352 416 332 c 0
 340 172 281 25 192 -138 c 0
 170 -178 145 -239 90 -239 c 0
 58 -239 42 -219 42 -200 c 0
 42 -180 56 -155 85 -155 c 0
 105 -155 113 -164 124 -164 c 0
 138 -164 139 -157 145 -148 c 0
 183 -88 222 3 222 9 c 0
 222 12 205 53 198 72 c 2
 108 330 l 2
 96 364 81 370 60 372 c 0
 42 374 32 376 32 388 c 0
 32 400 44 404 52 404 c 0
 74 404 113 401 153 401 c 0
 177 401 206 403 230 403 c 0
 239 403 248 400 247 388 c 0
EndSplineSet
EndChar

StartChar: z
Encoding: 122 122 25
Width: 421
VWidth: 0
Flags: HW
HStem: 0 45<164.25 320.56> 0 37<149.377 267.75> 360 42<112.794 250.094> 390 20G<136 371.5>
DStem2: 36 27 143 49 0.565877 0.82449<78.9966 393.7>
LayerCount: 3
Fore
SplineSet
118 414 m 0
 118 401 125 394 141 394 c 2x60
 369 402 l 2
 384 402 385 393 385 386 c 0
 385 376 374 367 367 359 c 0
 340 325 183 106 143 49 c 0
 137 40 143 38 154 39 c 2x50
 285 45 l 2x80
 317 46 317 59 331 93 c 0
 338 111 341 147 358 147 c 0
 364 147 374 141 374 129 c 0
 374 96 369 75 369 53 c 0
 369 44 371 32 371 22 c 0
 371 10 368 0 355 0 c 2x40
 73 0 l 2
 40 0 35 8 35 17 c 0
 35 27 59 59 70 73 c 2
 204 264 l 2
 222 290 241 314 260 338 c 0
 267 347 266 361 252 360 c 2
 173 355 l 2
 114 351 92 342 74 290 c 0
 72 283 64 281 59 281 c 0
 47 281 45 290 45 299 c 0
 45 320 70 384 83 431 c 0
 87 447 94 458 109 458 c 0
 119 458 123 450 123 442 c 0
 123 436 118 424 118 414 c 0
EndSplineSet
EndChar

StartChar: A
Encoding: 65 65 26
Width: 713
VWidth: 0
Flags: HW
HStem: -5 41<42.8186 75.6718 154.009 244.979 390.114 476.986 573.547 673.813> 294 41<259.001 390> 646 20G<356 367.5>
LayerCount: 3
Fore
SplineSet
259 342 m 0
 259 340 261 335 267 335 c 2
 382 335 l 2
 390 335 390 338 390 339 c 0
 390 351 331 525 329 525 c 0
 325 525 259 349 259 342 c 0
425 36 m 2
 436 36 l 2
 458 36 477 37 477 52 c 0
 477 66 404 294 403 294 c 2
 245 294 l 2
 233 294 216 239 211 226 c 0
 194 179 154 74 154 57 c 0
 154 36 166 36 186 36 c 2
 208 36 l 2
 227 36 245 34 245 16 c 0
 245 6 238 -5 220 -5 c 0
 199 -5 154 -2 124 -2 c 0
 106 -2 59 -8 42 -8 c 0
 21 -8 16 -1 16 14 c 0
 16 21 24 34 44 34 c 0
 62 34 69 34 76 36 c 0
 86 38 89 45 94 56 c 2
 334 634 l 2
 343 655 350 666 362 666 c 0
 373 666 378 652 381 642 c 0
 402 567 423 505 446 431 c 2
 514 218 l 1
 529 167 560 92 570 64 c 0
 580 37 597 40 632 37 c 0
 645 36 674 36 674 18 c 0
 674 9 669 -3 643 -3 c 0
 613 -3 550 0 529 0 c 0
 507 0 447 -1 416 -1 c 0
 396 -1 390 6 390 18 c 0
 390 35 406 36 425 36 c 2
EndSplineSet
EndChar

StartChar: B
Encoding: 66 66 27
Width: 572
VWidth: 0
Flags: HW
HStem: -1 43<19.0846 120.713 219.512 394.277> 348 25<212.159 342.719> 610 34<31.1964 123.031> 618 33<216.484 345.344>
VStem: 124 87<53.0174 347.843 373 607.817> 428 85<431.419 557.631> 460 89<116.614 272.587>
LayerCount: 3
Fore
SplineSet
428 496 m 0xdc
 428 580 338 618 258 618 c 2
 234 618 l 2
 218 618 216 614 216 586 c 2
 214 417 l 2
 214 406 212 395 212 387 c 0
 212 378 214 373 224 373 c 2
 244 373 l 2
 275 373 308 374 338 383 c 0
 386 396 428 434 428 496 c 0xdc
128 572 m 0
 126 608 104 610 80 610 c 0
 69 610 57 608 47 608 c 0
 34 608 29 610 29 620 c 0
 29 631 41 640 82 644 c 0xea
 145 649 245 651 285 651 c 0
 421 651 513 604 513 500 c 0xdc
 513 418 432 377 432 374 c 0
 432 372 549 362 549 212 c 0xda
 549 95 472 27 373 8 c 0
 337 2 296 -1 253 -1 c 0
 223 -1 194 0 164 0 c 2
 46 0 l 2
 26 0 19 7 19 23 c 0
 19 36 32 39 47 39 c 2
 85 39 l 2
 101 39 115 39 121 51 c 0
 126 59 126 72 126 86 c 2
 126 119 l 2
 126 158 124 201 124 233 c 0
 124 324 130 413 130 504 c 0
 130 526 129 549 128 572 c 0
217 71 m 0
 217 47 274 42 306 42 c 0
 396 42 460 92 460 176 c 0
 460 304 390 348 252 348 c 0
 216 348 211 348 211 333 c 0
 211 257 217 151 217 71 c 0
EndSplineSet
EndChar

StartChar: C
Encoding: 67 67 28
Width: 622
VWidth: 0
Flags: HW
HStem: -12 48<276.326 476.986> 627 43<284.914 473.378>
VStem: 30 104<197.179 436.326>
LayerCount: 3
Fore
SplineSet
571 546 m 0
 571 535 563 531 556 531 c 0
 543 531 535 552 529 560 c 0
 510 586 467 622 388 622 c 0
 229 622 134 491 134 345 c 0
 134 111 250 28 373 28 c 0
 475 28 514 62 544 104 c 0
 551 113 556 122 561 134 c 0
 568 151 569 170 583 170 c 0
 592 170 597 165 597 153 c 0
 597 119 584 104 580 60 c 0
 578 38 566 35 535 21 c 0
 462 -12 419 -12 350 -12 c 0
 149 -12 32 141 32 310 c 0
 32 472 139 660 390 660 c 0
 458 660 502 647 538 632 c 0
 554 626 557 625 560 606 c 0
 563 591 571 554 571 546 c 0
EndSplineSet
EndChar

StartChar: D
Encoding: 68 68 29
Width: 725
VWidth: 0
Flags: HW
HStem: -4 42<18.7342 105.974 231.776 453.364> 614 42<19.0602 108.257 200.021 376.701>
VStem: 107 91<67.2328 610.086> 600 103<208.333 428.192>
LayerCount: 3
Fore
SplineSet
18 12 m 0
 18 29 38 30 67 35 c 0
 100 40 107 43 107 74 c 0
 107 89 103 119 103 152 c 2
 103 162 l 1
 107 366 l 2
 107 417 117 568 117 577 c 0
 117 615 104 600 50 608 c 0
 38 610 17 615 17 626 c 0
 17 644 24 648 50 648 c 2
 176 648 l 2
 318 648 427 646 514 608 c 0
 628 558 696 450 696 310 c 0
 696 238 650 58 479 14 c 0
 425 0 402 -5 310 -5 c 0
 265 -5 199 0 157 0 c 0
 115 0 66 -5 51 -5 c 0
 18 -5 18 2 18 12 c 0
362 32 m 0
 421 32 467 59 508 94 c 0
 571 148 595 228 595 310 c 0
 595 482 476 568 345 596 c 0
 312 603 269 608 238 608 c 2
 222 608 l 2
 200 608 204 604 204 592 c 0
 202 465 197 338 197 211 c 0
 197 168 202 102 212 74 c 0
 225 39 294 32 362 32 c 0
EndSplineSet
EndChar

StartChar: E
Encoding: 69 69 30
Width: 608
VWidth: 0
Flags: HWO
HStem: -4 41<10.1574 107.676> 0 45<206.093 511.704> 321 41<211.078 432.722> 614 43<218.799 491.027> 627 40<34.0233 127.131>
VStem: 112 94<45.034 320.042> 129 81<364.9 610.896> 439 38<209.488 314.781 363.886 451.49> 521 32<506.036 574.038> 550 39<88.4585 153.99>
LayerCount: 3
Fore
SplineSet
528 645 m 0x33
 544 645 548 629 548 617 c 2
 548 518 l 2
 548 508 538 503 531 503 c 0
 522 503 521 511 520 515 c 0
 509 604 487 600 448 606 c 0
 420 610 297 614 261 614 c 0
 204 614 217 602 214 516 c 0
 213 482 212 447 212 405 c 0x3380
 212 366 213 356 242 356 c 0
 283 356 323 355 364 355 c 0
 437 355 437 363 442 392 c 0
 445 411 445 450 462 450 c 0
 473 450 474 442 474 435 c 0
 474 421 473 381 473 344 c 0
 473 262 476 241 476 228 c 0
 476 220 472 212 464 212 c 0
 441 212 446 246 444 268 c 0
 441 297 436 323 404 324 c 2
 239 327 l 2
 216 327 212 325 212 312 c 0
 212 289 213 258 213 233 c 0
 213 159 214 92 214 59 c 0
 214 45 231 40 244 40 c 2
 425 43 l 2
 501 44 532 66 555 122 c 0
 559 133 563 158 575 158 c 0
 586 158 588 151 588 137 c 0x7540
 588 109 577 80 574 62 c 0
 570 39 570 16 569 7 c 0
 568 -2 558 0 553 0 c 0
 509 1 465 1 422 1 c 0
 335 1 248 0 158 0 c 0x7180
 109 0 70 -4 46 -4 c 0
 35 -4 22 1 22 10 c 0
 22 32 23 35 37 35 c 0
 47 35 77 33 97 33 c 0
 121 33 118 38 124 75 c 0xa580
 129 105 132 260 134 394 c 0
 135 494 138 580 138 594 c 0
 138 619 116 621 90 621 c 2
 62 621 l 2
 50 621 40 626 40 637 c 0
 40 645 45 655 64 655 c 0xab
 86 655 133 649 167 649 c 0
 263 649 430 645 528 645 c 0x33
EndSplineSet
EndChar

StartChar: F
Encoding: 70 70 31
Width: 577
VWidth: 0
Flags: W
HStem: -8 37<22.2639 113.733 211.21 301.143> 311 38<202.388 415.626> 612 43<203.876 487.562> 620 32<26.008 113.358>
VStem: 120 82<39.4936 310.796 349.006 606.659> 435 28<224.236 298.838 373.836 442.99> 514 26<508.077 575.61>
LayerCount: 3
Fore
SplineSet
118 61 m 0xee
 119 147 120 252 120 346 c 0
 120 471 119 566 119 585 c 0
 119 606 103 620 83 620 c 2
 53 620 l 2
 37 620 26 622 26 636 c 0
 26 644 29 652 48 652 c 2
 158 652 l 2xde
 194 652 293 655 332 655 c 2
 512 655 l 2
 528 655 538 643 538 631 c 2
 540 524 l 2
 540 514 535 508 528 508 c 0
 519 508 515 520 514 524 c 0
 506 583 496 589 472 597 c 0
 436 609 370 612 351 612 c 0
 321 612 278 612 248 610 c 0
 209 607 204 603 203 582 c 0
 201 517 201 451 201 388 c 0
 201 357 202 349 225 349 c 2
 363 352 l 2
 427 353 429 387 432 410 c 0
 434 429 434 443 449 443 c 0
 458 443 461 430 461 418 c 0
 461 404 457 371 457 334 c 0
 457 300 463 255 463 242 c 0
 463 234 460 224 452 224 c 0
 436 224 438 237 435 259 c 0
 430 300 420 311 371 311 c 2
 239 311 l 2
 206 311 202 311 202 280 c 2
 202 240 l 2
 202 161 204 100 204 65 c 0
 204 36.9232419071 235 36 262 35 c 0
 283 34 302 32.2231990112 302 16 c 0
 302 2 290 -2 272 -2 c 0
 265 -2 219 0 168 0 c 0
 116 0 66 -8 40 -8 c 0
 29 -8 22 -1 22 8 c 0
 22 23.6368932738 45 26 68 29 c 0
 92 32 117.488652915 36.9666869959 118 61 c 0xee
EndSplineSet
Validated: 524289
EndChar

StartChar: G
Encoding: 71 71 32
Width: 769
VWidth: 0
Flags: W
HStem: -18 42<297.154 500.314> 269 39<408.625 530.516> 639 44<288.439 506.037>
VStem: 32 92<207.907 445.786> 535 85<52.5501 259.7> 584 37<493.023 564.019>
LayerCount: 3
Fore
SplineSet
124 337 m 0xf4
 124 137 250 24 403 24 c 0
 486 24 535 59 535 82 c 2
 535 236 l 2
 535 264 496 264 459 269 c 0
 432 272 408 274 408 293 c 0
 408 308 422 308 434 308 c 0
 524 308 614 310 704 310 c 0
 721 310 737 307 737 291 c 0
 737 262 620 283 620 255 c 2
 620 66 l 2xf8
 620 41 619 39 592 27 c 0
 548 7 445 -18 373 -18 c 0
 134 -18 32 149 32 325 c 0
 32 497 156 683 418 683 c 0
 479 683 556 665 595 642 c 0
 607 635 615 629 615 620 c 0
 615 612 618 599 618 565 c 0
 618 545 621 527 621 514 c 0
 621 501 616 493 603 493 c 0
 591 493 589 507 584 526 c 0
 565 593 500 639 412 639 c 0
 181 639 124 468 124 337 c 0xf4
EndSplineSet
Validated: 1
EndChar

StartChar: H
Encoding: 72 72 33
Width: 765
VWidth: 0
Flags: W
HStem: -3 32<35.0066 105.548 216.115 301.934 446.321 538.07> 303 50<208.068 548.093> 615 37<46.3056 122.172 215.479 303.58 471.436 551.736 638.091 708.852>
VStem: 118 89<38.7316 302.931 353.016 577.157> 125 89<377.83 613.237> 550 87<43.6152 302.896 353.199 616.406>
LayerCount: 3
Fore
SplineSet
207 65 m 0xf4
 207 38 234 36 259 34 c 0
 281 32 302 31 302 15 c 0
 302 -1 292 -5 274 -5 c 0
 267 -5 219 0 168 0 c 0
 116 0 88 -3 62 -3 c 0
 44 -3 35 3 35 13 c 0
 35 19 41 28 52 29 c 0
 76 31 118 34 118 76 c 0xf4
 118 105 125 546 125 579 c 0
 125 608 109 615 88 615 c 2
 66 615 l 2
 54 615 46 617 46 630 c 0
 46 647 63 652 85 652 c 0
 107 652 122 651 172 651 c 0
 232 651 257 655 272 655 c 0
 280 655 304 653 304 638 c 0
 304 619 288 617 270 617 c 2
 257 617 l 2
 234 617 216 616 214 588 c 0xec
 208 519 207 456 207 374 c 0
 207 354 210 353 232 353 c 2
 519 353 l 2
 547 353 548 356 549 392 c 0
 551 487 552 579 552 592 c 0
 552 618 529 616 507 619 c 0
 487 622 470 626 470 639 c 0
 470 654 483 655 505 655 c 0
 529 655 565 652 594 652 c 0
 607 652 650 653 673 653 c 0
 692 653 709 649 709 636 c 0
 709 622 701 621 681 619 c 0
 656 616 637 623 637 582 c 2
 637 506 l 2
 637 362 634 149 634 73 c 0
 634 24 737 44 737 13 c 0
 737 0 726 -2 708 -2 c 0
 701 -2 649 0 598 0 c 0
 546 0 489 -6 463 -6 c 0
 452 -6 446 1 446 10 c 0
 446 32 474 27 501 30 c 0
 524 32 546 39 547 73 c 0
 548 81 550 186 550 271 c 0
 550 302 550 303 518 303 c 2
 237 303 l 2
 209 303 208 302 208 275 c 0
 208 190 207 101 207 65 c 0xf4
EndSplineSet
Validated: 1
EndChar

StartChar: I
Encoding: 73 73 34
Width: 327
VWidth: 0
Flags: W
HStem: -2 36<16.8645 112.547 212.31 313.758> 621 38<18.0294 116.883 219.047 308.951>
VStem: 117 89<42.0521 610.698>
LayerCount: 3
Fore
SplineSet
206 69 m 0
 206 41.2106477834 239 37 269 34 c 0
 293 31 314 28.659027537 314 14 c 0
 314 -2 290 -2 272 -2 c 0
 265 -2 219 0 168 0 c 0
 116 0 59 -6 33 -6 c 0
 22 -6 16 1 16 10 c 0
 16 31.8547831589 41 30 66 31 c 0
 91 32 117 36.7557716764 117 74 c 0
 117 103 123 546 123 579 c 0
 123 616.684261177 91 620 62 621 c 0
 39 622 18 622.058851834 18 639 c 0
 18 656 28 659 50 659 c 0
 72 659 119 654 169 654 c 0
 179 654 254 657 269 657 c 0
 292 657 309 654 309 639 c 0
 309 620.626305931 293.230101885 619.482685729 274.000000703 618.998396059 c 0
 257.645344801 618.586521423 238.787916998 618.651541899 225 609 c 0
 209 597 207 563 207 516 c 0
 206 386 206 142 206 69 c 0
EndSplineSet
Validated: 524289
Layer: 2
SplineSet
206 69 m 4
 206 19 314 47 314 14 c 4
 314 -2 290 -2 272 -2 c 4
 265 -2 219 0 168 0 c 4
 116 0 59 -6 33 -6 c 4
 22 -6 16 1 16 10 c 4
 16 54 117 -4 117 74 c 4
EndSplineSet
EndChar

StartChar: J
Encoding: 74 74 35
Width: 327
VWidth: 0
Flags: W
HStem: -242 38<-15.9164 74.2049> 616 43<4.07251 114.317> 625 39<222.467 295.781>
VStem: -100 80<-199.28 -140.406> 117 93<327.768 611.25> 125 91<-95.4663 346.105>
LayerCount: 3
Fore
SplineSet
-29 -64 m 0xd4
 -3 -64 17 -83 17 -112 c 0
 17 -142 -20 -144 -20 -170 c 0
 -20 -190 -3 -204 25 -204 c 0
 107 -204 123 -94 124 -20 c 0
 125 16 125 56 125 96 c 0xd4
 125 300 118 538 117 581 c 0
 116 616 83 615 52 616 c 0
 27 617 4 617 4 636 c 0
 4 648 15 659 37 659 c 0xd8
 59 659 100 660 150 660 c 0
 160 660 257 664 272 664 c 0
 286 664 296 657 296 648 c 0
 296 625.652815619 277 627 255 625 c 0xb8
 244 624 231.939166263 622.169137681 222 616 c 0
 212 610 210 606 210 571 c 0xd8
 210 427 216 188 216 60 c 0
 216 -56 191 -129 153 -176 c 0
 116 -223 60 -242 16 -242 c 0
 -48 -242 -100 -202 -100 -145 c 0
 -100 -104 -73 -64 -29 -64 c 0xd4
EndSplineSet
Validated: 524289
EndChar

StartChar: K
Encoding: 75 75 36
Width: 703
VWidth: 0
Flags: W
HStem: -3 57<569.79 677.131> 0 42<12.2559 108.268 351.169 439.991> 302 45<206 237.016> 606 45<19.0927 117.402 214.015 293.609 367.033 443.99> 609 57<525.384 636.433>
VStem: 109 97<48.1728 299> 119 95<359.378 602.697> 444 203<585.5 651>
DStem2: 251 380 323 393 0.691038 0.722819<21.7787 287.467>
LayerCount: 3
Fore
SplineSet
351 23 m 0x65
 351 39 377 41 403 42 c 0
 428 43 440 48 440 58 c 0
 440 64 436 72 427 82 c 2
 234 294 l 2
 228 300 221 305 217 302 c 0
 206 294 206 294 206 283 c 2
 206 73 l 2
 206 23 311 62 311 21 c 0
 311 0 290 -2 272 -2 c 0
 265 -2 219 0 168 0 c 0
 116 0 78 -4 52 -4 c 0
 41 -4 12 0 12 17 c 0
 12 44 34 40 70 42 c 0
 93 43 109 44 109 72 c 0x65
 109 101 119 540 119 573 c 0
 119 599 100 604 79 606 c 0
 51 608 19 607 19 626 c 0
 19 643 26 651 50 651 c 2
 124 651 l 2
 170.062714305 651 210.311493979 655 255 655 c 0
 279 655 294 646 294 632 c 0
 294 613 277 615 259 611 c 0
 235 606 214 607 214 583 c 2
 214 550 l 2x73
 214 504 206 407 206 357 c 0
 206 351 206 347 209 347 c 0
 215 347 231 362 251 380 c 0
 280 406 324 458 417 553 c 0
 423 560 444 577 444 594 c 0
 444 608 430 612 420 612 c 2
 407 612 l 2
 370 612 366 625 366 635 c 0
 366 649 372 656 409 656 c 0
 429 656 484 658 497 658 c 0
 533 658 608 666 621 666 c 0
 638 666 647 659 647 643 c 0
 647 627 601 619 570 609 c 0
 520 593 486 556 452 520 c 0
 435 502 358 428 323 393 c 0
 307 377 298 369 298 365 c 0
 298 360 304 355 316 342 c 0
 376 281 565 69 594 54 c 0
 624 39 679 54 679 24 c 0
 679 2 670 -3 651 -3 c 0xad
 621 -3 593 0 526 0 c 2
 377 0 l 2
 374 0 351 3 351 23 c 0x65
EndSplineSet
Validated: 1
EndChar

StartChar: L
Encoding: 76 76 37
Width: 583
VWidth: 0
Flags: W
HStem: 0 43<213.396 443.274> 620 31<19.562 123.675> 629 31<228.177 333.586>
VStem: 126 83<47.3108 616.735>
LayerCount: 3
Fore
SplineSet
213 70 m 0xb0
 213 61 216 43 234 43 c 0
 271 43 425 47 467 61 c 0
 532 82 541 175 559 175 c 0
 568 175 572 164 572 149 c 0
 572 133 569 112 567 92 c 0
 564 57 564 25 564 22 c 0
 564 6 548 -2 530 -2 c 0
 523 -2 219 0 168 0 c 0
 116 0 52 -5 26 -5 c 0
 15 -5 4 0 4 10 c 0
 4 42 120 18 120 74 c 0
 120 103 126 546 126 579 c 0
 126 618 124 617 63 620 c 0
 41 621 19 624 19 639 c 0
 19 652 26 653 31 653 c 0
 56 653 57 651 138 651 c 0xd0
 244 651 280 660 311 660 c 0
 322 660 334 659 334 650 c 0
 334 632 326 631 306 629 c 0
 225 620 210 633 210 531 c 0
 210 480 209 424 209 358 c 0
 209 241 210 117 213 70 c 0xb0
EndSplineSet
Validated: 1
EndChar

StartChar: M
Encoding: 77 77 38
Width: 944
VWidth: -2
Flags: W
HStem: -2 35<31.0139 121.955 189.75 308.404 606.169 705.154 813.565 920.851> 615 38<44.7185 147.991>
VStem: 127 53<42.2689 303.777> 712 92<42.1355 325.543>
LayerCount: 3
Fore
SplineSet
446 26 m 2
 446 26 197 521 192 521 c 0
 183 521 180 201 180 110 c 0
 180 44 186 41 240 35 c 0
 276 31 309 33 309 11 c 0
 309 -4 296 -5 277 -5 c 0
 251 -5 199 0 160 0 c 0
 128 0 73 -2 51 -2 c 0
 42 -2 31 0 31 15 c 0
 31 33 50 32 71 33 c 0
 124 36 125 44 127 85 c 0
 132 222 148 584 148 597 c 0
 148 611 136 608 100 615 c 0
 71 621 44 622 44 638 c 0
 44 650 51 653 62 653 c 2
 217 653 l 2
 223 653 235 652 239 645 c 2
 469 190 l 2
 481 166 487 155 491 155 c 0
 493 155 499 168 511 196 c 2
 680 583 l 2
 689 605 702 650 720 650 c 0
 731 650 771 648 798 648 c 0
 827 648 855 649 884 650 c 0
 899 650 909 645 909 631 c 0
 909 604 811 618 795 597 c 0
 791 591 790 581 790 570 c 0
 790 504 801 122 804 74 c 0
 806 37 841 37 873 33 c 0
 898 30 921 29 921 14 c 0
 921 -3 910 -3 885 -3 c 0
 874 -3 817 -1 761 -1 c 0
 705 -1 651 -6 642 -6 c 0
 608 -6 606 1 606 14 c 0
 606 30 632 30 658 32 c 0
 692 34 712 42 712 80 c 2
 712 80 711 529 706 529 c 0
 698 529 485 24 485 24 c 2
 480 12 473 6 466 6 c 0
 458 6 453 13 446 26 c 2
EndSplineSet
Validated: 1
EndChar

StartChar: N
Encoding: 78 78 39
Width: 758
VWidth: 0
Flags: W
HStem: -27 21G<610 622> -3 37<16.0139 112.222 163.467 276.849> 619 40<7.09814 101.58> 630 34<461.084 572.923 637.566 717.951>
VStem: 107 41<348.284 506.991> 116 45<38.2014 265.977> 579 49<359.8 620.713> 592 41<131.008 383.023>
DStem2: 171 628 176 482 0.644871 -0.764291<79.7102 647.831>
LayerCount: 3
Fore
SplineSet
171 628 m 2xe8
 485 253 l 2
 514 219 580 131 587 131 c 0
 592 131 592 142 592 179 c 0xe9
 592 215 585 473 579 574 c 0
 577 605 581 615 556 624 c 0
 546 628 532 629 518 630 c 0
 490 632 461 633 461 648 c 0
 461 658 464 667 485 667 c 0
 506 667 504 664 591 664 c 0
 642 664 669 666 692 666 c 0
 701 666 718 664 718 648 c 0
 718 632 702 631 683 630 c 0
 666 629 649 631 637 621 c 0
 630 615 629 601 629 573 c 0
 629 546 628 454 628 427 c 0xd2
 628 266 633 153 633 -3 c 0
 633 -27 624 -27 620 -27 c 0
 600 -27 603 -24 500 98 c 2
 176 482 l 2
 163 497 155 507 151 507 c 0
 148 507 148 494 148 482 c 0xd9
 148 378 158 129 161 62 c 0
 162 34 200 35 221 34 c 0
 256 32 277 33 277 13 c 0
 277 -2 264 -3 245 -3 c 0
 219 -3 179 0 140 0 c 0
 108 0 58 -2 36 -2 c 0
 27 -2 16 0 16 15 c 0
 16 33 35 33 56 33 c 0
 112 33 116 44 116 85 c 0xd4
 116 217 109 457 107 548 c 0
 106 610 102 611 61 619 c 0
 41 623 7 620 7 640 c 0
 7 657 16 659 26 659 c 2
 64 659 l 2
 82 659 101 661 119 661 c 0
 142 661 149 655 171 628 c 2xe8
EndSplineSet
Validated: 1
Layer: 2
SplineSet
171 628 m 6xec
 485 253 l 6
 514 219 580 131 587 131 c 4
 592 131 592 142 592 179 c 4
 592 215 590 470 589 574 c 4
 589 619 575 627 528 630 c 4
 500 632 471 633 471 648 c 4
 471 658 474 667 495 667 c 4
 516 667 514 664 601 664 c 4
 652 664 679 666 702 666 c 4
 711 666 728 664 728 648 c 4
 728 632 712 631 693 630 c 4xdc
 650 627 640 630 639 573 c 4
 636 365 633 193 633 -3 c 4
 633 -27 624 -27 620 -27 c 4
 600 -27 603 -24 500 98 c 6
 176 482 l 6
 163 497 155 507 151 507 c 4
 148 507 148 494 148 482 c 4
 148 378 150 129 153 62 c 4
 154 34 190 35 211 34 c 4
 246 32 267 33 267 13 c 4
 267 -2 254 -3 235 -3 c 4
 209 -3 169 0 130 0 c 4
 98 0 48 -2 26 -2 c 4
 17 -2 6 0 6 15 c 4
 6 33 25 33 46 33 c 4
 102 33 106 44 106 85 c 4
 106 215 107 408 107 548 c 4
 107 610 102 611 61 619 c 4
 41 623 7 620 7 640 c 4
 7 657 16 659 26 659 c 6
 64 659 l 6
 82 659 101 661 119 661 c 4
 142 661 149 655 171 628 c 6xec
171 628 m 2xd0
 485 253 l 2
 514 219 580 131 587 131 c 0
 592 131 592 142 592 179 c 0xd2
 592 215 585 473 579 574 c 0
 577 605 581 615 556 624 c 0
 546 628 532 629 518 630 c 0
 490 632 461 633 461 648 c 0
 461 658 464 667 485 667 c 0
 506 667 504 664 591 664 c 0
 642 664 669 666 692 666 c 0
 701 666 718 664 718 648 c 0
 718 632 702 631 683 630 c 0
 666 629 649 631 637 621 c 0
 630 615 629 601 629 573 c 0
 629 546 628 454 628 427 c 0xa4
 628 266 633 153 633 -3 c 0
 633 -27 624 -27 620 -27 c 0
 600 -27 603 -24 500 98 c 2
 176 482 l 2
 163 497 155 507 151 507 c 0
 148 507 148 494 148 482 c 0xb2
 148 378 158 129 161 62 c 0
 162 34 200 35 221 34 c 0
 256 32 277 33 277 13 c 0
 277 -2 264 -3 245 -3 c 0
 219 -3 179 0 140 0 c 0
 108 0 58 -2 36 -2 c 0
 27 -2 16 0 16 15 c 0
 16 33 35 33 56 33 c 0
 112 33 116 44 116 85 c 0xa8
 116 217 109 457 107 548 c 0
 106 610 102 611 61 619 c 0
 41 623 7 620 7 640 c 0
 7 657 16 659 26 659 c 2
 64 659 l 2
 82 659 101 661 119 661 c 0
 142 661 149 655 171 628 c 2xd0
EndSplineSet
EndChar

StartChar: O
Encoding: 79 79 40
Width: 786
VWidth: 0
Flags: W
HStem: -19 40<307.376 481.249> 622 44<274.636 459.692>
VStem: 36 106<202.247 450.859> 621 107<188.728 433.798>
LayerCount: 3
Fore
SplineSet
728 322 m 0
 728 94 570 -19 374 -19 c 0
 194 -19 36 86 36 326 c 0
 36 548 204 666 380 666 c 0
 576 666 728 542 728 322 c 0
367 622 m 0
 217.726469659 622 142 481.448263612 142 333 c 0
 142 132 270 21 392 21 c 0
 523 21 621 126 621 298 c 0
 621 496 506 622 367 622 c 0
EndSplineSet
Validated: 1
EndChar

StartChar: P
Encoding: 80 80 41
Width: 557
VWidth: 0
Flags: W
HStem: -6 39<23.0049 111.878 215.082 323.975> 264 49<244.303 379.422> 618 41<215.686 355.971>
VStem: 113 99<41.3421 302.993 320.308 325> 124 86<348.51 614.836> 437 93<380.09 541.97>
LayerCount: 3
Fore
SplineSet
214 558 m 0xec
 213 540 210 442 210 375 c 0
 210 341 212 330 223 324 c 0
 239 316 279 313 298 313 c 0
 387 313 437 367 437 463 c 0
 437 554 370 618 268 618 c 0
 208 618 216 612 214 558 c 0xec
212 277 m 2xf4
 212 66 l 2
 212 40 235 41 260 37 c 0
 290 33 324 32 324 14 c 0
 324 -2 317 -7 299 -7 c 0
 292 -7 219 0 168 0 c 0
 116 0 69 -6 43 -6 c 0
 29 -6 22 -3 22 6 c 0
 22 33 50 29 78 33 c 0
 97 35 113 41 113 60 c 0xf4
 113 89 124 560 124 593 c 0xec
 124 636 26 602 26 640 c 0
 26 657 38 661 53 661 c 0
 75 661 122 656 172 656 c 0
 233 656 265 659 327 659 c 0
 402 659 530 638 530 484 c 0
 530 387 476 264 330 264 c 0
 264 264 217 303 216 303 c 0
 214 303 212 293 212 277 c 2xf4
EndSplineSet
Validated: 1
EndChar

StartChar: Q
Encoding: 81 81 42
Width: 767
VWidth: 0
Flags: W
HStem: -245 58<647.481 753.002> 622 41<279.119 463.164>
VStem: 42 93<201.561 441.843> 628 94<187.703 434.767>
LayerCount: 3
Fore
SplineSet
367 622 m 0
 218 622 135 483 135 335 c 0
 135 134 262 12 384 12 c 0
 515 12 628 124 628 296 c 0
 628 494 519 622 367 622 c 0
380 663 m 0
 579 663 722 534 722 321 c 0
 722 -8 415 -5 415 -14 c 0
 415 -20 628 -187 721 -187 c 0
 767 -187 774 -175 784 -175 c 0
 793 -175 797 -190 797 -194 c 0
 797 -202 784 -210 774 -214 c 0
 744 -227 706 -245 668 -245 c 0
 528 -245 454 -130 314 -30 c 0
 302 -22 292 -11 276 -6 c 0
 142 33 42 146 42 310 c 0
 42 530 193 663 380 663 c 0
EndSplineSet
Validated: 1
EndChar

StartChar: R
Encoding: 82 82 43
Width: 679
VWidth: 0
Flags: W
HStem: 0 31<19.4814 110.113 555.26 654.083> 322 25<209.393 278.117> 618 36<34.4535 122.307 210.176 314.935>
VStem: 113 95<40.0172 317.957> 125 83<317.957 322 347.231 615.197> 398 92<408.098 551.5>
LayerCount: 3
Fore
SplineSet
208 292 m 2xf4
 208 66 l 2
 208 40 228 40 258 34 c 0
 288 28 316 24 316 11 c 0
 316 -5 308 -7 296 -7 c 0
 289 -7 219 0 168 0 c 0
 116 0 64 -6 38 -6 c 0
 24 -6 17 -3 17 6 c 0
 17 33 60 27 88 31 c 0
 107 33 110 41 113 60 c 0xf4
 116 85 125 447 125 561 c 0xec
 125 578 124 589 124 593 c 0
 122 615 99 618 76 618 c 2
 63 618 l 2
 47 618 34 619 34 632 c 0
 34 648 50 650 66 652 c 0
 75 653 86 654 98 654 c 2
 164 654 l 2
 189 654 217 656 246 656 c 0
 371 656 490 626 490 496 c 0
 490 413 450 368 387 344 c 0
 366 336 356 334 356 328 c 0
 356 324 361 318 370 306 c 0
 422 243 464 164 507 92 c 0
 536 45 553 44 628 29 c 0
 648 25 655 22 655 9 c 0
 655 -2 645 -3 631 -3 c 0
 585 -3 539 -2 493 -2 c 0
 444 -2 438 21 427 41 c 2
 292 289 l 2
 284 303 275 322 252 322 c 2
 229 322 l 2
 211 322 208 315 208 292 c 2xf4
209 590 m 0
 209 572 207 442 207 375 c 0
 207 350 207 347 242 347 c 0
 331 347 398 383 398 479 c 0
 398 568 328 616 230 616 c 0
 211 616 209 598 209 590 c 0
EndSplineSet
Validated: 1
EndChar

StartChar: S
Encoding: 83 83 44
Width: 510
VWidth: 0
Flags: W
HStem: -21 45<175.443 351.774> 626 45<185.83 323.576>
VStem: 70 31<102.875 189.985> 79 59<459.981 577.648> 370 37<498.163 576.219> 407 55<79.0672 202.615>
LayerCount: 3
Back
SplineSet
138 516 m 0xd8
 138 455 193 431 262 393 c 0
 351 344 462 301 462 174 c 0
 462 78 404 -21 256 -21 c 0
 199 -21 129 -9 99 3 c 0
 74 13 68 15 68 25 c 0
 68 51 70 74 70 96 c 2
 70 160 l 2
 70 172 74 190 86 190 c 0
 95 190 100 185 101 176 c 0xe4
 104 133 108 110 129 83 c 0
 158 46 212 24 272 24 c 0
 365 24 407 86 407 142 c 0
 407 297 79 269 79 500 c 0
 79 584 154 671 269 671 c 0
 318 671 360 661 396 646 c 0
 405 642 407 633 407 625 c 0xd4
 407 614 406 605 406 593 c 0
 406 568 407 539 407 522 c 0
 407 504 404 498 390 498 c 0
 378 498 373 519 370 533 c 0
 354 601 302 626 253 626 c 0
 197 626 138 586 138 516 c 0xd8
EndSplineSet
Fore
SplineSet
138 514 m 0xd8
 138 381 462 385 462 174 c 0
 462 78 404 -21 256 -21 c 0
 199 -21 129 -9 99 3 c 0
 74 13 68 15 68 25 c 0
 68 51 70 74 70 96 c 2
 70 160 l 2
 70 172 74 190 86 190 c 0
 95 190 100 185 101 176 c 0xe4
 104 133 108 110 129 83 c 0
 158 46 212 24 272 24 c 0
 365 24 407 86 407 142 c 0
 407 297 79 269 79 500 c 0
 79 584 154 671 269 671 c 0
 318 671 360 661 396 646 c 0
 405 642 407 633 407 625 c 0xd4
 407 614 406 605 406 593 c 0
 406 568 407 539 407 522 c 0
 407 504 404 498 390 498 c 0
 378 498 373 519 370 533 c 0
 354 601 302 626 253 626 c 0
 197 626 138 585 138 514 c 0xd8
EndSplineSet
Validated: 1
EndChar

StartChar: T
Encoding: 84 84 45
Width: 633
VWidth: 0
Flags: W
HStem: -6 42<172.811 264.984 359.345 482.529> 604 52<93.8424 277.858 362.782 546.991> 666 20G<62 81.5 578.5 598.5>
VStem: 19 39<501.347 564.87> 270 88<42.8855 330.865> 278 83<287.283 603.09>
LayerCount: 3
Fore
SplineSet
358 69 m 0xf8
 358 41 370 44 406 40 c 0
 414 39 435 38 452 36 c 0
 473 34 483 31 483 19 c 0
 483 3 467 -2 449 -2 c 0
 442 -2 371 0 320 0 c 0
 268 0 211 -6 185 -6 c 0
 174 -6 172 1 172 10 c 0
 172 30 204 31 228 36 c 0
 251 41 266 40 270 78 c 0xf8
 274 121 278 397 278 529 c 2
 278 570 l 2
 278 588 278 604 267 604 c 2
 225 604 l 2
 186 604 137 601 107 590 c 0
 84 581 68 555 58 534 c 0
 49 516 44 500 34 500 c 0
 19 500 19 509 19 516 c 0
 19 549 31 587 45 640 c 0
 47 647 53 686 71 686 c 0
 92 686 96 658 109 658 c 0
 210 658 287 656 365 656 c 0
 498 656 484 653 552 653 c 0
 578 653 567 686 590 686 c 0
 607 686 609 663 609 637 c 0
 609 627 608 614 608 606 c 0
 608 577 614 539 614 527 c 0
 614 520 612 504 600 504 c 0
 570 504 582 562 547 583 c 0
 516 602 436 604 409 604 c 2
 393 604 l 2
 365 604 361 590 361 558 c 0xf4
 361 546 362 420 362 404 c 0
 361 274 358 142 358 69 c 0xf8
EndSplineSet
Validated: 1
EndChar

StartChar: U
Encoding: 85 85 46
Width: 746
VWidth: 0
Flags: W
HStem: -25 55<264.216 489.761> 617 47<11.6442 95.4095 191.419 299.778 442.369 557.285 622.473 703.456>
VStem: 97 91<112.488 615.331> 570 48<172.148 605.514>
LayerCount: 3
Fore
SplineSet
618 378 m 0
 618 84 581 -25 353 -25 c 0
 241 -25 97 0 97 190 c 2
 97 586 l 2
 97 618 74 616 47 621 c 0
 41 622 11 623 11 638 c 0
 11 648 22 663 41 663 c 0
 61 663 89 660 122 660 c 0
 168 660 242 664 260 664 c 0
 288 664 300 658 300 638 c 0
 300 618 272 617 228 617 c 0
 206 617 188 615 188 568 c 2
 188 243 l 2
 188 128 206 30 368 30 c 0
 516 30 570 72 570 306 c 0
 570 379 570 462 568 531 c 0
 566 602 563 612 497 617 c 0
 444 621 442 633 442 644 c 0
 442 661 452 666 480 666 c 0
 494 666 538 660 575 660 c 0
 605 660 651 668 679 668 c 0
 698 668 706 659 706 648 c 0
 706 628 680 625 658 619 c 0
 622 610 620 609 620 562 c 0
 620 511 618 434 618 378 c 0
EndSplineSet
Validated: 1
EndChar

StartChar: V
Encoding: 86 86 47
Width: 727
VWidth: 0
Flags: W
HStem: -23 21G<342.5 356.5> 616 42<14.0283 94.5334 213.667 317.992 618.815 711.947>
LayerCount: 3
Back
SplineSet
318 637 m 4
 318 626 307 618 292 616 c 4
 272 613 213 621 213 590 c 4
 213 580 321 271 374 153 c 4
 378 144 382 139 386 139 c 4
 390 139 394 143 398 153 c 4
 433 235 557 562 557 596 c 4
 557 628 455 605 455 636 c 4
 455 655 474 659 493 659 c 4
 522 659 548 656 582 656 c 4
 665 656 682 658 690 658 c 4
 704 658 712 648 712 638 c 4
 712 622 694 617 676 615 c 4
 642 611 622 618 601 560 c 4
 568 466 407 85 379 6 c 4
 369 -22 362 -23 351 -23 c 4
 334 -23 327 5 318 36 c 4
 308 70 295 100 291 111 c 6
 104 577 l 5
 89 634 14 604 14 637 c 4
 14 653 50 655 60 655 c 4
 84 655 119 654 163 654 c 4
 189 654 268 658 294 658 c 4
 307 658 318 650 318 637 c 4
EndSplineSet
Fore
SplineSet
318 637 m 0
 318 626 307 618 292 616 c 0
 272 613 213 621 213 590 c 0
 213 580 321 271 374 153 c 0
 378 144 382 139 386 139 c 0
 390 139 394 143 398 153 c 0
 433 235 557 562 557 596 c 0
 557 628 455 605 455 636 c 0
 455 655 474 659 493 659 c 0
 522 659 548 656 582 656 c 0
 665 656 682 658 690 658 c 0
 704 658 712 648 712 638 c 0
 712 622 694 617 676 615 c 0
 642 611 622 618 601 560 c 0
 568 466 407 85 379 6 c 0
 369 -22 362 -23 351 -23 c 0
 334 -23 327 5 318 36 c 0
 308 70 295 100 291 111 c 2
 104 577 l 2
 94 603 84 607 71 612 c 0
 53 619 14 615 14 637 c 0
 14 653 50 655 60 655 c 0
 84 655 119 654 163 654 c 0
 189 654 268 658 294 658 c 0
 307 658 318 650 318 637 c 0
EndSplineSet
Validated: 1
EndChar

StartChar: W
Encoding: 87 87 48
Width: 943
VWidth: 0
Flags: W
HStem: -23 21G<310.5 321 591 604.5> 619 38<16.6303 78.8196 190.535 259.896 485.589 557.915 693.117 786.262 853.568 910.971>
VStem: 787 124<583 643.5>
LayerCount: 3
Fore
SplineSet
787 596 m 0
 787 613 758 616 732 619 c 0
 711 621 693 626 693 636 c 0
 693 655 710 659 720 659 c 0
 749 659 781 656 815 656 c 0
 834 656 879 657 887 657 c 0
 901 657 911 650 911 637 c 0
 911 626 904 622 894 620 c 0
 855 612 852 603 839 567 c 2
 762 358 l 1
 709 218 645 58 628 10 c 0
 618 -18 610 -23 599 -23 c 0
 583 -23 566 44 563 53 c 2
 492 271 l 2
 481 304 475 320 470 320 c 0
 464 320 458 302 445 270 c 0
 399 157 355 44 342 6 c 0
 333 -20 325 -20 317 -20 c 0
 304 -20 296 4 287 36 c 0
 277 70 265 100 261 111 c 2
 94 577 l 2
 83 608 59 611 41 614 c 0
 27 616 16 619 16 633 c 0
 16 649 30 654 40 654 c 2
 143 654 l 2
 169 654 212 657 238 657 c 0
 251 657 260 649 260 636 c 0
 260 621 246 620 230 619 c 0
 211 618 190 617 190 595 c 0
 190 585 281 302 334 184 c 0
 339 173 344 156 352 156 c 0
 356 156 361 161 367 176 c 0
 381 209 410 279 438 353 c 0
 444 369 448 376 448 386 c 0
 448 395 445 405 438 428 c 2
 389 577 l 2
 371 632 305 604 305 637 c 0
 305 653 317 657 327 657 c 0
 365 655 402 653 440 653 c 0
 467 653 514 656 538 656 c 0
 551 656 558 649 558 636 c 0
 558 622 545 621 528 620 c 0
 507 619 484 614 484 591 c 0
 484 581 569 296 617 175 c 0
 622 163 626 157 631 157 c 0
 635 157 640 162 646 175 c 0
 686 258 787 570 787 596 c 0
EndSplineSet
Validated: 1
EndChar

StartChar: X
Encoding: 88 88 49
Width: 741
VWidth: 0
Flags: W
HStem: -2 39<184.008 278.976 620.478 717.701> 621 40<38.1167 123.575 422.032 500.996 585.415 689.928>
DStem2: 346 447 293 354 0.55797 -0.829861<-184.49 42.8188 135.944 398.53> 302 303 317 257 0.573668 0.819088<-232.149 0.00972486 132.417 335.589>
LayerCount: 3
Fore
SplineSet
293 354 m 2
 124 606 l 2
 115 618 102 619 90 620 c 0
 42 623 38 629 38 644 c 0
 38 660 56 666 73 666 c 0
 105 666 116 663 174 663 c 0
 209 663 261 664 296 664 c 0
 313 664 327 659 327 649 c 0
 327 605 251 635 251 606 c 0
 251 594 255 589 346 447 c 0
 360 425 367 414 374 414 c 0
 381 414 387 425 403 447 c 2
 489 570 l 2
 495 579 501 592 501 602 c 0
 501 611 496 619 481 621 c 0
 458 625 422 619 422 642 c 0
 422 655 433 661 459 661 c 2
 560 661 l 2
 595 661 618 664 651 664 c 0
 665 664 690 663 690 642 c 0
 690 620 664 626 642 621 c 0
 599 613 601 618 575 591 c 0
 531 546 459 441 409 388 c 0
 404 383 401 378 401 372 c 0
 401 363 407 354 413 345 c 2
 579 111 l 2
 615 60 617 46 664 41 c 0
 692 38 718 38 718 14 c 0
 718 -3 686 -7 673 -7 c 0
 645 -7 575 0 531 0 c 0
 513 0 461 -4 431 -4 c 0
 410 -4 400 -2 400 17 c 0
 400 52 483 18 483 58 c 0
 483 74 393 204 360 255 c 0
 350 271 344 278 338 278 c 0
 332 278 327 271 317 257 c 0
 285 213 222 115 200 89 c 0
 189 76 184 65 184 57 c 0
 184 45 195 37 221 37 c 2
 232 37 l 2
 254 37 279 36 279 18 c 0
 279 1 246 -2 220 -2 c 0
 187 -2 185 0 152 0 c 0
 117 0 78 -3 45 -3 c 0
 23 -3 6 9 6 15 c 0
 6 39 35 41 64 44 c 0
 109 48 111 60 143 100 c 2
 302 303 l 2
 310 313 314 317 314 321 c 0
 314 327 308 332 293 354 c 2
EndSplineSet
Validated: 1
EndChar

StartChar: Y
Encoding: 89 89 50
Width: 741
VWidth: 0
Flags: W
HStem: -2 48<177.173 303.793 397.083 513.733> 624 43<16.0184 98.9973 222.02 317.984 414.133 508.991 585.588 687.983>
VStem: 304 91<49.3687 340.219>
LayerCount: 3
Fore
SplineSet
318 646 m 0
 318 627 296 626 273 624 c 0
 250 622 222 624 222 608 c 0
 222 597 303 478 348 401 c 0
 364 374 375 358 378 358 c 0
 381 358 389 371 402 396 c 0
 437 463 509 595 509 604 c 0
 509 613 496 622 481 623 c 0
 460 625 414 620 414 644 c 0
 414 657 423 667 447 667 c 0
 485 667 523 665 560 665 c 0
 589 665 624 669 652 669 c 0
 666 669 688 664 688 646 c 0
 688 624 664 624 642 621 c 0
 599 615 599 620 575 591 c 0
 539 547 435 374 400 320 c 0
 396 314 395 303 395 293 c 2
 395 90 l 2
 395 46 409 50 444 46 c 0
 473 43 514 48 514 24 c 0
 514 14 511 -2 473 -2 c 0
 441 -2 433 0 348 0 c 0
 276 0 223 -4 198 -4 c 0
 188 -4 176 -1 176 16 c 0
 176 44 209 44 244 46 c 0
 272 48 304 46 304 71 c 2
 304 286 l 2
 304 314 298 320 287 336 c 2
 99 606 l 2
 90 618 74 621 62 622 c 0
 22 626 16 630 16 645 c 0
 16 661 31 667 48 667 c 0
 80 667 97 665 155 665 c 0
 190 665 243 667 278 667 c 0
 303 667 318 660 318 646 c 0
EndSplineSet
Validated: 1
EndChar

StartChar: Z
Encoding: 90 90 51
Width: 718
VWidth: 0
Flags: W
HStem: 0 64<390.188 592.25> -0 48<184.007 348.812> 613 47<141.641 504.996> 665 20G<100 112.5>
DStem2: 40 32 188 66 0.638018 0.770022<111.199 736.985>
LayerCount: 3
Fore
SplineSet
40 32 m 2x70
 498 589 l 2
 503 595 505 600 505 604 c 0
 505 610 500 613 490 613 c 2
 279 610 l 2
 175 609 114 603 78 558 c 0
 65 542 58 532 48 532 c 0
 36 532 36 541 36 543 c 0
 36 581 59 605 80 660 c 0
 88 680 97 685 103 685 c 0
 122 685 110 653 141 653 c 0
 154 653 210 655 240 655 c 2
 628 660 l 2
 649 660 658 651 658 641 c 0
 658 636 656 631 652 626 c 2
 188 66 l 2
 185 63 184 59 184 57 c 0
 184 50 194 48 204 48 c 2x70
 535 64 l 2xb0
 586 66 606 92 627 146 c 0
 639 175 651 178 658 178 c 0
 663 178 670 175 670 159 c 0
 670 124 655 110 652 61 c 2
 650 24 l 2
 649 14 644 0 632 0 c 2
 65 -0 l 2
 44 0 34 1 34 10 c 0
 34 15 34 24 40 32 c 2x70
EndSplineSet
Validated: 1
EndChar

StartChar: comma
Encoding: 44 44 53
Width: 306
VWidth: 0
Flags: W
HStem: -174 28<102.887 141.635> -9 80<113.625 185.535>
VStem: 190 54<-99.9459 -13.964>
LayerCount: 3
Fore
SplineSet
142 -9 m 0
 117 -9 104 3 104 22 c 0
 104 51 131 71 162 71 c 0
 205 71 244 30 244 -28 c 0
 244 -114 159 -174 112 -174 c 0
 106 -174 102 -170 102 -164 c 0
 102 -154 115 -151 124 -146 c 0
 157 -128 190 -87 190 -48 c 0
 190 -22 175 -9 142 -9 c 0
EndSplineSet
Validated: 1
EndChar

StartChar: period
Encoding: 46 46 54
Width: 298
VWidth: 0
Flags: W
HStem: -17 92<114.347 191.653>
VStem: 107 92<-9.65255 67.6526>
LayerCount: 3
Fore
SplineSet
107 29 m 0
 107 54 128 75 153 75 c 0
 178 75 199 54 199 29 c 0
 199 4 178 -17 153 -17 c 0
 128 -17 107 4 107 29 c 0
EndSplineSet
Validated: 1
EndChar

StartChar: hyphen
Encoding: 45 45 55
Width: 298
VWidth: 250
Flags: W
HStem: 233 92<114.347 191.653>
VStem: 107 92<240.347 317.653>
LayerCount: 3
Fore
SplineSet
107 279 m 0
 107 304 128 325 153 325 c 0
 178 325 199 304 199 279 c 0
 199 254 178 233 153 233 c 0
 128 233 107 254 107 279 c 0
EndSplineSet
Validated: 1
EndChar

StartChar: endash
Encoding: 8211 8211 56
Width: 298
VWidth: 250
Flags: W
HStem: 233 92<114.347 191.653>
VStem: 107 92<240.347 317.653>
LayerCount: 3
Fore
SplineSet
107 279 m 4
 107 304 128 325 153 325 c 4
 178 325 199 304 199 279 c 4
 199 254 178 233 153 233 c 4
 128 233 107 254 107 279 c 4
EndSplineSet
Validated: 1
EndChar

StartChar: emdash
Encoding: 8212 8212 57
Width: 298
VWidth: 250
Flags: W
HStem: 233 92<114.347 191.653>
VStem: 107 92<240.347 317.653>
LayerCount: 3
Fore
SplineSet
107 279 m 0
 107 304 128 325 153 325 c 0
 178 325 199 304 199 279 c 0
 199 254 178 233 153 233 c 0
 128 233 107 254 107 279 c 0
EndSplineSet
Validated: 1
EndChar

StartChar: semicolon
Encoding: 59 59 58
Width: 298
VWidth: 250
Flags: W
HStem: 233 92<114.347 191.653>
VStem: 107 92<240.347 317.653>
LayerCount: 3
Fore
SplineSet
107 279 m 4
 107 304 128 325 153 325 c 4
 178 325 199 304 199 279 c 4
 199 254 178 233 153 233 c 4
 128 233 107 254 107 279 c 4
EndSplineSet
Validated: 1
EndChar

StartChar: colon
Encoding: 58 58 59
Width: 298
VWidth: 250
Flags: W
HStem: 233 92<114.347 191.653>
VStem: 107 92<240.347 317.653>
LayerCount: 3
Fore
SplineSet
107 279 m 0
 107 304 128 325 153 325 c 0
 178 325 199 304 199 279 c 0
 199 254 178 233 153 233 c 0
 128 233 107 254 107 279 c 0
EndSplineSet
Validated: 1
EndChar

StartChar: question
Encoding: 63 63 60
Width: 298
VWidth: 250
Flags: W
HStem: 233 92<114.347 191.653>
VStem: 107 92<240.347 317.653>
LayerCount: 3
Fore
SplineSet
107 279 m 0
 107 304 128 325 153 325 c 0
 178 325 199 304 199 279 c 0
 199 254 178 233 153 233 c 0
 128 233 107 254 107 279 c 0
EndSplineSet
Validated: 1
EndChar

StartChar: exclam
Encoding: 33 33 61
Width: 298
VWidth: 250
Flags: W
HStem: 233 92<114.347 191.653>
VStem: 107 92<240.347 317.653>
LayerCount: 3
Fore
SplineSet
107 279 m 0
 107 304 128 325 153 325 c 0
 178 325 199 304 199 279 c 0
 199 254 178 233 153 233 c 0
 128 233 107 254 107 279 c 0
EndSplineSet
Validated: 1
EndChar

StartChar: parenleft
Encoding: 40 40 62
Width: 298
VWidth: 250
Flags: W
HStem: 233 92<114.347 191.653>
VStem: 107 92<240.347 317.653>
LayerCount: 3
Fore
SplineSet
107 279 m 0
 107 304 128 325 153 325 c 0
 178 325 199 304 199 279 c 0
 199 254 178 233 153 233 c 0
 128 233 107 254 107 279 c 0
EndSplineSet
Validated: 1
EndChar

StartChar: parenright
Encoding: 41 41 63
Width: 298
VWidth: 250
Flags: W
HStem: 233 92<114.347 191.653>
VStem: 107 92<240.347 317.653>
LayerCount: 3
Fore
SplineSet
107 279 m 0
 107 304 128 325 153 325 c 0
 178 325 199 304 199 279 c 0
 199 254 178 233 153 233 c 0
 128 233 107 254 107 279 c 0
EndSplineSet
Validated: 1
EndChar

StartChar: quotedbl
Encoding: 34 34 64
Width: 298
VWidth: 250
Flags: W
HStem: 233 92<114.347 191.653>
VStem: 107 92<240.347 317.653>
LayerCount: 3
Fore
SplineSet
107 279 m 0
 107 304 128 325 153 325 c 0
 178 325 199 304 199 279 c 0
 199 254 178 233 153 233 c 0
 128 233 107 254 107 279 c 0
EndSplineSet
Validated: 1
EndChar

StartChar: numbersign
Encoding: 35 35 65
Width: 298
VWidth: 250
Flags: W
HStem: 233 92<114.347 191.653>
VStem: 107 92<240.347 317.653>
LayerCount: 3
Fore
SplineSet
107 279 m 0
 107 304 128 325 153 325 c 0
 178 325 199 304 199 279 c 0
 199 254 178 233 153 233 c 0
 128 233 107 254 107 279 c 0
EndSplineSet
Validated: 1
EndChar

StartChar: dollar
Encoding: 36 36 66
Width: 298
VWidth: 250
Flags: W
HStem: 233 92<114.347 191.653>
VStem: 107 92<240.347 317.653>
LayerCount: 3
Fore
SplineSet
107 279 m 0
 107 304 128 325 153 325 c 0
 178 325 199 304 199 279 c 0
 199 254 178 233 153 233 c 0
 128 233 107 254 107 279 c 0
EndSplineSet
Validated: 1
EndChar

StartChar: percent
Encoding: 37 37 67
Width: 298
VWidth: 250
Flags: W
HStem: 233 92<114.347 191.653>
VStem: 107 92<240.347 317.653>
LayerCount: 3
Fore
SplineSet
107 279 m 0
 107 304 128 325 153 325 c 0
 178 325 199 304 199 279 c 0
 199 254 178 233 153 233 c 0
 128 233 107 254 107 279 c 0
EndSplineSet
Validated: 1
EndChar

StartChar: ampersand
Encoding: 38 38 68
Width: 298
VWidth: 250
Flags: W
HStem: 233 92<114.347 191.653>
VStem: 107 92<240.347 317.653>
LayerCount: 3
Fore
SplineSet
107 279 m 0
 107 304 128 325 153 325 c 0
 178 325 199 304 199 279 c 0
 199 254 178 233 153 233 c 0
 128 233 107 254 107 279 c 0
EndSplineSet
Validated: 1
EndChar

StartChar: quotesingle
Encoding: 39 39 69
Width: 298
VWidth: 250
Flags: W
HStem: 233 92<114.347 191.653>
VStem: 107 92<240.347 317.653>
LayerCount: 3
Fore
SplineSet
107 279 m 0
 107 304 128 325 153 325 c 0
 178 325 199 304 199 279 c 0
 199 254 178 233 153 233 c 0
 128 233 107 254 107 279 c 0
EndSplineSet
Validated: 1
EndChar

StartChar: zero
Encoding: 48 48 70
Width: 298
VWidth: 250
Flags: W
HStem: 233 92<114.347 191.653>
VStem: 107 92<240.347 317.653>
LayerCount: 3
Fore
SplineSet
107 279 m 0
 107 304 128 325 153 325 c 0
 178 325 199 304 199 279 c 0
 199 254 178 233 153 233 c 0
 128 233 107 254 107 279 c 0
EndSplineSet
Validated: 1
EndChar

StartChar: one
Encoding: 49 49 71
Width: 298
VWidth: 250
Flags: W
HStem: 233 92<114.347 191.653>
VStem: 107 92<240.347 317.653>
LayerCount: 3
Fore
SplineSet
107 279 m 0
 107 304 128 325 153 325 c 0
 178 325 199 304 199 279 c 0
 199 254 178 233 153 233 c 0
 128 233 107 254 107 279 c 0
EndSplineSet
Validated: 1
EndChar

StartChar: two
Encoding: 50 50 72
Width: 298
VWidth: 250
Flags: W
HStem: 233 92<114.347 191.653>
VStem: 107 92<240.347 317.653>
LayerCount: 3
Fore
SplineSet
107 279 m 0
 107 304 128 325 153 325 c 0
 178 325 199 304 199 279 c 0
 199 254 178 233 153 233 c 0
 128 233 107 254 107 279 c 0
EndSplineSet
Validated: 1
EndChar

StartChar: three
Encoding: 51 51 73
Width: 298
VWidth: 250
Flags: W
HStem: 233 92<114.347 191.653>
VStem: 107 92<240.347 317.653>
LayerCount: 3
Fore
SplineSet
107 279 m 0
 107 304 128 325 153 325 c 0
 178 325 199 304 199 279 c 0
 199 254 178 233 153 233 c 0
 128 233 107 254 107 279 c 0
EndSplineSet
Validated: 1
EndChar

StartChar: four
Encoding: 52 52 74
Width: 298
VWidth: 250
Flags: W
HStem: 233 92<114.347 191.653>
VStem: 107 92<240.347 317.653>
LayerCount: 3
Fore
SplineSet
107 279 m 0
 107 304 128 325 153 325 c 0
 178 325 199 304 199 279 c 0
 199 254 178 233 153 233 c 0
 128 233 107 254 107 279 c 0
EndSplineSet
Validated: 1
EndChar

StartChar: five
Encoding: 53 53 75
Width: 298
VWidth: 250
Flags: W
HStem: 233 92<114.347 191.653>
VStem: 107 92<240.347 317.653>
LayerCount: 3
Fore
SplineSet
107 279 m 0
 107 304 128 325 153 325 c 0
 178 325 199 304 199 279 c 0
 199 254 178 233 153 233 c 0
 128 233 107 254 107 279 c 0
EndSplineSet
Validated: 1
EndChar

StartChar: six
Encoding: 54 54 76
Width: 298
VWidth: 250
Flags: W
HStem: 233 92<114.347 191.653>
VStem: 107 92<240.347 317.653>
LayerCount: 3
Fore
SplineSet
107 279 m 0
 107 304 128 325 153 325 c 0
 178 325 199 304 199 279 c 0
 199 254 178 233 153 233 c 0
 128 233 107 254 107 279 c 0
EndSplineSet
Validated: 1
EndChar

StartChar: seven
Encoding: 55 55 77
Width: 298
VWidth: 250
Flags: W
HStem: 233 92<114.347 191.653>
VStem: 107 92<240.347 317.653>
LayerCount: 3
Fore
SplineSet
107 279 m 0
 107 304 128 325 153 325 c 0
 178 325 199 304 199 279 c 0
 199 254 178 233 153 233 c 0
 128 233 107 254 107 279 c 0
EndSplineSet
Validated: 1
EndChar

StartChar: eight
Encoding: 56 56 78
Width: 298
VWidth: 250
Flags: W
HStem: 233 92<114.347 191.653>
VStem: 107 92<240.347 317.653>
LayerCount: 3
Fore
SplineSet
107 279 m 0
 107 304 128 325 153 325 c 0
 178 325 199 304 199 279 c 0
 199 254 178 233 153 233 c 0
 128 233 107 254 107 279 c 0
EndSplineSet
Validated: 1
EndChar

StartChar: nine
Encoding: 57 57 79
Width: 298
VWidth: 250
Flags: W
HStem: 233 92<114.347 191.653>
VStem: 107 92<240.347 317.653>
LayerCount: 3
Fore
SplineSet
107 279 m 0
 107 304 128 325 153 325 c 0
 178 325 199 304 199 279 c 0
 199 254 178 233 153 233 c 0
 128 233 107 254 107 279 c 0
EndSplineSet
Validated: 1
EndChar
